<?xml version="1.0" encoding="utf-8"?>
<!-- Generator: Adobe Illustrator 21.0.2, SVG Export Plug-In . SVG Version: 6.00 Build 0)  -->
<svg version="1.1"
	 id="svg2" inkscape:version="0.48.2 r9819" sodipodi:docname="genomePretty.svg" xmlns:cc="http://creativecommons.org/ns#" xmlns:dc="http://purl.org/dc/elements/1.1/" xmlns:inkscape="http://www.inkscape.org/namespaces/inkscape" xmlns:rdf="http://www.w3.org/1999/02/22-rdf-syntax-ns#" xmlns:sodipodi="http://sodipodi.sourceforge.net/DTD/sodipodi-0.dtd" xmlns:svg="http://www.w3.org/2000/svg"
	 xmlns="http://www.w3.org/2000/svg" xmlns:xlink="http://www.w3.org/1999/xlink" x="0px" y="0px" viewBox="0 0 2200 3024"
	 style="enable-background:new 0 0 2200 3024;" xml:space="preserve">
<style type="text/css">
	.st0{font-family:'HelveticaNeueLTStd-Roman';}
	.st1{font-size:57.9613px;}
	.st2{clip-path:url(#SVGID_2_);}
</style>
<sodipodi:namedview  bordercolor="#666666" borderopacity="1.0" fit-margin-bottom="0" fit-margin-left="0" fit-margin-right="0" fit-margin-top="0" id="base" inkscape:current-layer="layer1" inkscape:cx="261.59989" inkscape:cy="246.30581" inkscape:document-units="in" inkscape:guide-bbox="true" inkscape:pageopacity="0.0" inkscape:pageshadow="2" inkscape:window-height="746" inkscape:window-maximized="1" inkscape:window-width="1366" inkscape:window-x="-8" inkscape:window-y="-8" inkscape:zoom="1.200431" pagecolor="#ffffff" showgrid="false" showguides="false" units="in">
	<sodipodi:guide  id="guide3000" orientation="1,0" position="-373.91519,355.08062"></sodipodi:guide>
	<sodipodi:guide  id="guide3022" orientation="0,1" position="-358.91519,247.08062"></sodipodi:guide>
	<sodipodi:guide  id="guide3024" orientation="0,1" position="-353.20091,242.58062"></sodipodi:guide>
	<sodipodi:guide  id="guide3026" orientation="0,1" position="-350.34376,220.08062"></sodipodi:guide>
	<sodipodi:guide  id="guide3028" orientation="0,1" position="-329.62948,215.58062"></sodipodi:guide>
	<sodipodi:guide  id="guide3034" orientation="0,1" position="-393.20091,193.08062"></sodipodi:guide>
	<sodipodi:guide  id="guide3085" orientation="0,1" position="-395.34376,188.58062"></sodipodi:guide>
	<sodipodi:guide  id="guide3087" orientation="0,1" position="64.258329,165.46299"></sodipodi:guide>
	<sodipodi:guide  id="guide3115" orientation="0,1" position="-241.41519,161.58062"></sodipodi:guide>
	<sodipodi:guide  id="guide3119" orientation="0,1" position="-337.48662,134.58062"></sodipodi:guide>
	<sodipodi:guide  id="guide3121" orientation="0,1" position="404.46508,112.96031"></sodipodi:guide>
	<sodipodi:guide  id="guide3129" orientation="0,1" position="-366.91519,171.83062"></sodipodi:guide>
	<sodipodi:guide  id="guide3143" orientation="0,1" position="-355.17686,31.080619"></sodipodi:guide>
	<sodipodi:guide  id="guide3145" orientation="0,1" position="-18.947596,22.718619"></sodipodi:guide>
	<sodipodi:guide  id="guide3195" orientation="0,1" position="-173.45042,4.0806193"></sodipodi:guide>
	<sodipodi:guide  id="guide3197" orientation="0,1" position="-284.46619,-0.41938071"></sodipodi:guide>
	<sodipodi:guide  id="guide3199" orientation="0,1" position="-298.25477,-22.919381"></sodipodi:guide>
	<sodipodi:guide  id="guide3201" orientation="0,1" position="-325.12483,-27.419381"></sodipodi:guide>
	<sodipodi:guide  id="guide3203" orientation="0,1" position="-340.32762,-49.919381"></sodipodi:guide>
	<sodipodi:guide  id="guide3205" orientation="0,1" position="-317.34665,-54.419381"></sodipodi:guide>
	<sodipodi:guide  id="guide3207" orientation="0,1" position="-316.63954,-76.919381"></sodipodi:guide>
	<sodipodi:guide  id="guide3209" orientation="0,1" position="-303.91162,-81.419385"></sodipodi:guide>
	<sodipodi:guide  id="guide3247" orientation="0,1" position="-294.66519,-103.91938"></sodipodi:guide>
	<sodipodi:guide  id="guide3249" orientation="0,1" position="-346.66519,-108.41938"></sodipodi:guide>
	<sodipodi:guide  id="guide3253" orientation="0,1" position="-246.91519,-130.91938"></sodipodi:guide>
	<sodipodi:guide  id="guide3255" orientation="0,1" position="-277.41519,-135.41938"></sodipodi:guide>
	<sodipodi:guide  id="guide3257" orientation="0,1" position="-321.66519,-157.91938"></sodipodi:guide>
	<sodipodi:guide  id="guide3259" orientation="0,1" position="-330.66519,-162.41938"></sodipodi:guide>
	<sodipodi:guide  id="guide3261" orientation="0,1" position="-333.91519,-184.91938"></sodipodi:guide>
	<sodipodi:guide  id="guide3263" orientation="0,1" position="-350.16519,-189.41938"></sodipodi:guide>
	<sodipodi:guide  id="guide3340" orientation="0,1" position="-406.44211,-211.91938"></sodipodi:guide>
	<sodipodi:guide  id="guide3342" orientation="0,1" position="-413.51317,-216.41938"></sodipodi:guide>
	<sodipodi:guide  id="guide3346" orientation="0,1" position="-410.33119,-238.91938"></sodipodi:guide>
	<sodipodi:guide  id="guide3354" orientation="1,0" position="-401.41519,377.58062"></sodipodi:guide>
	<sodipodi:guide  id="guide3376" orientation="0,1" position="-299.16519,252.33062"></sodipodi:guide>
	<sodipodi:guide  id="guide3382" orientation="0,1" position="-283.91519,225.58062"></sodipodi:guide>
	<sodipodi:guide  id="guide3390" orientation="0,1" position="-362.91519,198.58062"></sodipodi:guide>
	<sodipodi:guide  id="guide3430" orientation="0,1" position="-384.91519,9.8306193"></sodipodi:guide>
	<sodipodi:guide  id="guide3436" orientation="0,1" position="-289.16519,-17.419381"></sodipodi:guide>
	<sodipodi:guide  id="guide3446" orientation="0,1" position="-373.91519,-43.919381"></sodipodi:guide>
	<sodipodi:guide  id="guide3448" orientation="0,1" position="-286.16519,-71.419381"></sodipodi:guide>
	<sodipodi:guide  id="guide3454" orientation="0,1" position="-387.66519,-98.169385"></sodipodi:guide>
	<sodipodi:guide  id="guide3460" orientation="0,1" position="-275.16519,-125.41938"></sodipodi:guide>
	<sodipodi:guide  id="guide3466" orientation="0,1" position="-360.41519,-152.16938"></sodipodi:guide>
	<sodipodi:guide  id="guide3472" orientation="0,1" position="-414.16519,-179.66938"></sodipodi:guide>
	<sodipodi:guide  id="guide3478" orientation="0,1" position="-292.91519,-206.66938"></sodipodi:guide>
	<sodipodi:guide  id="guide3488" orientation="0,1" position="-362.91519,-233.16938"></sodipodi:guide>
	<sodipodi:guide  id="guide4064" orientation="0,1" position="69.834804,258.83062"></sodipodi:guide>
	<sodipodi:guide  id="guide4081" orientation="1,0" position="14.849242,307.945"></sodipodi:guide>
	<sodipodi:guide  id="guide4083" orientation="1,0" position="47.641319,384.75448"></sodipodi:guide>
	<sodipodi:guide  id="guide4085" orientation="1,0" position="81.084804,242.58062"></sodipodi:guide>
	<sodipodi:guide  id="guide4087" orientation="1,0" position="114.90485,254.20489"></sodipodi:guide>
	<sodipodi:guide  id="guide4089" orientation="1,0" position="149.02275,252.33062"></sodipodi:guide>
	<sodipodi:guide  id="guide4091" orientation="1,0" position="182.625,252.33062"></sodipodi:guide>
	<sodipodi:guide  id="guide4093" orientation="1,0" position="217.875,252.33062"></sodipodi:guide>
	<sodipodi:guide  id="guide4095" orientation="1,0" position="251.03125,257.25"></sodipodi:guide>
	<sodipodi:guide  id="guide4097" orientation="1,0" position="285.5,347.75"></sodipodi:guide>
	<sodipodi:guide  id="guide4099" orientation="1,0" position="319.625,345.375"></sodipodi:guide>
	<sodipodi:guide  id="guide4101" orientation="1,0" position="353.25,134.58062"></sodipodi:guide>
	<sodipodi:guide  id="guide4103" orientation="1,0" position="388.20162,278.95363"></sodipodi:guide>
	<sodipodi:guide  id="guide12488" orientation="1,0" position="3.8890872,161.58062"></sodipodi:guide>
	<sodipodi:guide  id="guide12492" orientation="0,1" position="26.516504,181.37288"></sodipodi:guide>
	<sodipodi:guide  id="guide12494" orientation="0,1" position="26.516504,35.812499"></sodipodi:guide>
	<sodipodi:guide  id="guide13008" orientation="0,1" position="9.457553,183.14065"></sodipodi:guide>
	<sodipodi:guide  id="guide13439" orientation="1,0" position="26.140625,37.859375"></sodipodi:guide>
	<sodipodi:guide  id="guide15391" orientation="0,1" position="107.21507,150.1718"></sodipodi:guide>
	<sodipodi:guide  id="guide17232" orientation="0,1" position="371.76139,232.19619"></sodipodi:guide>
	<sodipodi:guide  id="guide21930" orientation="0,1" position="441.94174,303.17203"></sodipodi:guide>
	<sodipodi:guide  id="guide22976" orientation="1,0" position="340.64869,247.08062"></sodipodi:guide>
</sodipodi:namedview>
<text transform="matrix(1 0 0 1 72.1563 1739.7329)" class="st0 st1">chr1</text>
<text transform="matrix(1 0 0 1 249.693 1734.55)" class="st0 st1">chr2</text>
<text transform="matrix(1 0 0 1 421.5026 1734.2891)" class="st0 st1">chr3</text>
<text transform="matrix(1 0 0 1 593.9053 1734.3207)" class="st0 st1">chr4</text>
<text transform="matrix(1 0 0 1 955.3137 1735.1141)" class="st0 st1">chr6</text>
<text transform="matrix(1 0 0 1 773.4866 1734.0438)" class="st0 st1">chr5</text>
<text transform="matrix(1 0 0 1 1134.6689 1734.2257)" class="st0 st1">chr7</text>
<text transform="matrix(1 0 0 1 1312.9221 1735.1141)" class="st0 st1">chr8</text>
<text transform="matrix(1 0 0 1 1495.2769 1735.1141)" class="st0 st1">chr9</text>
<text transform="matrix(1 0 0 1 1660.8042 1735.1141)" class="st0 st1">chr10</text>
<text transform="matrix(1 0 0 1 1836.2463 1735.1141)" class="st0 st1">chr11</text>
<text transform="matrix(1 0 0 1 2018.6294 1735.1141)" class="st0 st1">chr12</text>
<text transform="matrix(1 0 0 1 47.786 2904.1479)" class="st0 st1">chr13</text>
<text transform="matrix(1 0 0 1 223.0485 2904.1479)" class="st0 st1">chr14</text>
<text transform="matrix(1 0 0 1 399.2256 2904.1479)" class="st0 st1">chr15</text>
<text transform="matrix(1 0 0 1 580.1217 2904.1479)" class="st0 st1">chr16</text>
<text transform="matrix(1 0 0 1 761.5588 2904.1479)" class="st0 st1">chr17</text>
<text transform="matrix(1 0 0 1 935.3179 2904.1479)" class="st0 st1">chr18</text>
<text transform="matrix(1 0 0 1 1118.6108 2904.1479)" class="st0 st1">chr19</text>
<text transform="matrix(1 0 0 1 1294.3867 2904.1479)" class="st0 st1">chr20</text>
<text transform="matrix(1 0 0 1 1476.3025 2904.1479)" class="st0 st1">chr21</text>
<text transform="matrix(1 0 0 1 1656.5874 2904.1479)" class="st0 st1">chr22</text>
<text transform="matrix(1 0 0 1 1845.1143 2904.1479)" class="st0 st1">chrX</text>
<g>
	<defs>
		<path id="SVGID_1_" d="M70.8,2087.3c7.4-17.4,17.9-18.4,29-18.4s22.1,1.1,29.5,18.4v85.9v15.3l-22.7-1.1
			c-13.7,0-36.4-7.9-36.4-17.4L70.8,2087.3z M188.3,2087.3c-1.6-4.2-3.7-7.4-5.8-9.5c-6.8-7.9-15.3-9-23.7-9
			c-11.1,0-22.1,1.1-29.5,18.4l0.5,85.9v15.3l22.7-1.1c13.7,0,36.4-7.9,36.4-17.4L188.3,2087.3z M187.8,2816.5
			c-7.4,17.4-17.9,18.4-29,18.4s-22.1-1.1-29.5-18.4v-612.8v-15.3l22.7,1.1c13.7,0,36.4,7.9,36.4,17.4L187.8,2816.5z M70.8,2816.5
			c7.4,17.4,17.9,18.4,29,18.4s22.1-1.1,29.5-18.4v-612.8v-15.3l-22.7,1.1c-13.7,0-36.4,7.9-36.4,17.4L70.8,2816.5z M419.6,2171.6
			c7.4-17.4,17.9-18.4,29-18.4s22.1,1.1,29.5,18.4l-0.5,77.5v15.3l-22.7-1.1c-13.7,0-36.4-7.9-36.4-17.4L419.6,2171.6z
			 M537.1,2171.6c-1.6-4.2-3.7-7.4-5.8-9.5c-6.8-7.9-15.3-9-23.7-9c-11.1,0-22.1,1.1-29.5,18.4l-0.5,77.5v15.3l22.7-1.1
			c13.7,0,36.4-7.9,36.4-17.4L537.1,2171.6z M536.6,2816.5c-7.4,17.4-17.9,18.4-29,18.4s-22.1-1.1-29.5-18.4v-536.9v-15.3l22.7,1.1
			c13.7,0,36.4,7.9,36.4,17.4L536.6,2816.5z M419.6,2816.5c7.4,17.4,17.9,18.4,29,18.4s22.1-1.1,29.5-18.4l-0.5-536.9v-15.3
			l-22.7,1.1c-13.7,0-36.4,7.9-36.4,17.4L419.6,2816.5z M243.6,2139.9c7.4-17.4,17.9-18.4,29-18.4s22.1,1.1,29.5,18.4l-0.5,73.2
			v15.3l-22.7-1.1c-13.7,0-36.4-7.9-36.4-17.4L243.6,2139.9z M361.1,2139.9c-1.6-4.2-3.7-7.4-5.8-9.5c-6.8-7.9-15.3-9-23.7-9
			c-11.1,0-22.1,1.1-29.5,18.4v73.2v15.3l22.7-1.1c13.7,0,36.4-7.9,36.4-17.4L361.1,2139.9z M360.6,2816.5
			c-7.4,17.4-17.9,18.4-29,18.4s-22.1-1.1-29.5-18.4v-572.8v-15.3l22.7,1.1c13.7,0,36.4,7.9,36.4,17.4L360.6,2816.5z M243.6,2816.5
			c7.4,17.4,17.9,18.4,29,18.4s22.1-1.1,29.5-18.4l-0.5-572.8v-15.3l-22.7,1.1c-13.7,0-36.4,7.9-36.4,17.4L243.6,2816.5z
			 M598.7,2250.6c7.4-17.4,17.9-18.4,29-18.4s22.1,1.1,29.5,18.4l-0.5,219.7v15.3l-22.7-1.1c-13.7,0-36.4-7.9-36.4-17.4
			L598.7,2250.6z M716.2,2250.6c-1.6-4.2-3.7-7.4-5.8-9.5c-6.8-7.9-15.3-9-23.7-9c-11.1,0-22.1,1.1-29.5,18.4l-0.5,219.7v15.3
			l22.7-1.1c13.7,0,36.4-7.9,36.4-17.4L716.2,2250.6z M715.7,2816.5c-7.4,17.4-17.9,18.4-29,18.4s-22.1-1.1-29.5-18.4v-316.2V2485
			l22.7,1.1c13.7,0,36.4,7.9,36.4,17.4L715.7,2816.5z M598.7,2816.5c7.4,17.4,17.9,18.4,29,18.4s22.1-1.1,29.5-18.4l-1.1-316.2V2485
			l-22.7,1.1c-13.7,0-36.4,7.9-36.4,17.4L598.7,2816.5z M783.2,2310.4c7.4-17.4,17.9-18.4,29-18.4s22.1,1.1,29.5,18.4l-1.1,123.8
			v15.3l-22.7-1.1c-13.7,0-36.4-7.9-36.4-17.4L783.2,2310.4z M900.7,2310.4c-1.6-4.2-3.7-7.4-5.8-9.5c-6.8-7.9-15.3-9-23.7-9
			c-11.1,0-22.1,1.1-29.5,18.4v123.9v15.3l22.7-1.1c13.7,0,36.4-7.9,36.4-17.4L900.7,2310.4L900.7,2310.4z M900.2,2817.8
			c-7.4,17.4-17.9,18.4-29,18.4s-22.1-1.1-29.5-18.4v-353v-15.3l22.7,1.1c13.7,0,36.4,7.9,36.4,17.4L900.2,2817.8z M783.2,2817.8
			c7.4,17.4,17.9,18.4,29,18.4s22.1-1.1,29.5-18.4l-0.5-353v-15.3l-22.7,1.1c-13.7,0-36.4,7.9-36.4,17.4L783.2,2817.8z
			 M957.7,2333.1c7.4-17.4,17.9-18.4,29-18.4s22.1,1.1,29.5,18.4l-1.1,79v15.3l-22.1-1.1c-13.7,0-36.4-7.9-36.4-17.4L957.7,2333.1z
			 M1075.2,2333.1c-1.6-4.2-3.7-7.4-5.8-9.5c-6.8-7.9-15.3-9-23.7-9c-11.1,0-22.1,1.1-29.5,18.4l-0.5,79v15.3l22.7-1.1
			c13.7,0,36.4-7.9,36.4-17.4L1075.2,2333.1z M1074.7,2817.4c-7.4,17.4-17.9,18.4-29,18.4s-22.1-1.1-29.5-18.4v-375.2v-15.3
			l22.7,1.1c13.7,0,36.4,7.9,36.4,17.4L1074.7,2817.4z M957.7,2817.4c7.4,17.4,17.9,18.4,29,18.4s22.1-1.1,29.5-18.4l-0.5-375.2
			v-15.3L993,2428c-13.7,0-36.4,7.9-36.4,17.4L957.7,2817.4z M1141.5,2456.9c7.4-17.4,17.9-18.4,29-18.4s22.1,1.1,29.5,18.4
			l-1.1,142.3v15.3l-22.7-1.1c-13.7,0-36.4-7.9-36.4-17.4L1141.5,2456.9z M1259,2456.9c-1.6-4.2-3.7-7.4-5.8-9.5
			c-6.8-7.9-15.3-9-23.7-9c-11.1,0-22.1,1.1-29.5,18.4l-0.5,142.3v15.3l22.7-1.1c13.7,0,36.4-7.9,36.4-17.4L1259,2456.9z
			 M1258.5,2817.9c-7.4,17.4-17.9,18.4-29,18.4s-22.1-1.1-29.5-18.4l-0.5-188.6V2614l22.7,1.1c13.7,0,36.4,7.9,36.4,17.4
			L1258.5,2817.9L1258.5,2817.9z M1141.5,2817.9c7.4,17.4,17.9,18.4,29,18.4s22.1-1.1,29.5-18.4l-1.1-188.6V2614l-22.7,1.1
			c-13.7,0-36.4,7.9-36.4,17.4L1141.5,2817.9z M1316.4,2435.8c7.4-17.4,17.9-18.4,29-18.4s22.1,1.1,29.5,18.4l-1.1,148.6v15.3
			l-22.7-1.1c-13.7,0-36.4-7.9-36.4-17.4L1316.4,2435.8z M1433.9,2435.8c-1.6-4.2-3.7-7.4-5.8-9.5c-6.8-7.9-15.3-9-23.7-9
			c-11.1,0-22.1,1.1-29.5,18.4l-0.5,148.6v15.3l22.7-1.1c13.7,0,36.4-7.9,36.4-17.4L1433.9,2435.8z M1433.4,2817.9
			c-7.4,17.4-17.9,18.4-29,18.4s-22.1-1.1-29.5-18.4V2615v-15.3l22.7,1.1c13.7,0,36.4,7.9,36.4,17.4L1433.4,2817.9z M1316.4,2817.9
			c7.4,17.4,17.9,18.4,29,18.4s22.1-1.1,29.5-18.4l-1.1-202.9v-15.3l-22.7,1.1c-13.7,0-36.4,7.9-36.4,17.4L1316.4,2817.9z
			 M1495.1,2530.7c7.4-17.4,17.9-18.4,29-18.4s22.1,1.1,29.5,18.4l-1.1,46.9v15.3l-22.7-1.1c-13.7,0-36.4-7.9-36.4-17.4
			L1495.1,2530.7z M1612.6,2530.7c-1.6-4.2-3.7-7.4-5.8-9.5c-6.8-7.9-15.3-9-23.7-9c-11.1,0-22.1,1.1-29.5,18.4v46.9v15.3l22.7-1.1
			c13.7,0,36.4-7.9,36.4-17.4L1612.6,2530.7L1612.6,2530.7z M1612,2817.9c-7.4,17.4-17.9,18.4-29,18.4s-22.1-1.1-29.5-18.4v-209.7
			v-15.3l22.7,1.1c13.7,0,36.4,7.9,36.4,17.4L1612,2817.9z M1495.1,2817.9c7.4,17.4,17.9,18.4,29,18.4s22.1-1.1,29.5-18.4
			l-0.5-209.7v-15.3l-22.7,1.1c-13.7,0-36.4,7.9-36.4,17.4L1495.1,2817.9z M1495.1,2530.7c7.4-17.4,17.9-18.4,29-18.4
			s22.1,1.1,29.5,18.4l-1.1,46.9v15.3l-22.7-1.1c-13.7,0-36.4-7.9-36.4-17.4L1495.1,2530.7z M1612.6,2530.7
			c-1.6-4.2-3.7-7.4-5.8-9.5c-6.8-7.9-15.3-9-23.7-9c-11.1,0-22.1,1.1-29.5,18.4v46.9v15.3l22.7-1.1c13.7,0,36.4-7.9,36.4-17.4
			L1612.6,2530.7L1612.6,2530.7z M1612,2817.9c-7.4,17.4-17.9,18.4-29,18.4s-22.1-1.1-29.5-18.4v-209.7v-15.3l22.7,1.1
			c13.7,0,36.4,7.9,36.4,17.4L1612,2817.9z M1495.1,2817.9c7.4,17.4,17.9,18.4,29,18.4s22.1-1.1,29.5-18.4l-0.5-209.7v-15.3
			l-22.7,1.1c-13.7,0-36.4,7.9-36.4,17.4L1495.1,2817.9z M1678.9,2509.6c7.4-17.4,17.9-18.4,29-18.4s22.1,1.1,29.5,18.4l-0.5,56.4
			v15.3l-22.7-1.1c-13.7,0-36.4-7.9-36.4-17.4L1678.9,2509.6z M1796.4,2509.6c-1.6-4.2-3.7-7.4-5.8-9.5c-6.8-7.9-15.3-9-23.7-9
			c-11.1,0-22.1,1.1-29.5,18.4v56.4v15.3l22.7-1.1c13.7,0,36.4-7.9,36.4-17.4L1796.4,2509.6L1796.4,2509.6z M1795.9,2817.9
			c-7.4,17.4-17.9,18.4-29,18.4s-22.1-1.1-29.5-18.4v-221.3v-15.3l22.7,1.1c13.7,0,36.4,7.9,36.4,17.4L1795.9,2817.9z
			 M1678.9,2817.9c7.4,17.4,17.9,18.4,29,18.4s22.1-1.1,29.5-18.4l-0.5-221.3v-15.3l-22.7,0.5c-13.7,0-36.4,7.9-36.4,17.4
			L1678.9,2817.9z M1882.3,1819c7.4-17.4,17.9-18.4,29-18.4s22.1,1.1,29.5,18.4l-0.5,369.9c0,7.9-13.2,19-29,19
			c-13.7,0-29.5-9-29.5-18.4L1882.3,1819z M1882.3,2817.5c7.4,17.4,17.9,18.4,29,18.4s22.1-1.1,29.5-18.4l-0.5-592.3
			c0-6.3-13.7-17.4-29-17.4c-13.7,0-29.5,9-29.5,18.4L1882.3,2817.5z M70.4,18.9c7.4-17.4,17.9-18.4,29-18.4s22.1,1.1,29.5,18.4
			l-0.5,794.6v15.3l-22.7-1.1c-13.7,0-36.4-7.9-36.4-17.4L70.4,18.9z M187.9,18.9c-1.6-4.2-3.7-7.4-5.8-9.5c-6.8-7.9-15.3-9-23.7-9
			c-11.1,0-22.1,1.1-29.5,18.4v794.6v15.3l22.7-1.1c13.7,0,36.4-7.9,36.4-17.4L187.9,18.9L187.9,18.9z M187.4,1636.5
			c-7.4,17.4-17.9,18.4-29,18.4s-22.1-1.1-29.5-18.4V844v-15.3l22.7,1.1c13.7,0,36.4,7.9,36.4,17.4L187.4,1636.5z M70.4,1636.5
			c7.4,17.4,17.9,18.4,29,18.4s22.1-1.1,29.5-18.4L128.4,844v-15.3l-22.7,1.1c-13.7,0-36.4,7.9-36.4,17.4L70.4,1636.5z M243.2,61.1
			c7.4-17.4,17.9-18.4,29-18.4s22.1,1.1,29.5,18.4l-0.5,582.8v15.3l-22.7-1.1c-13.7,0-36.4-7.9-36.4-17.4L243.2,61.1z M360.7,61.1
			c-1.6-4.2-3.7-7.4-5.8-9.5c-6.8-7.9-15.3-9-23.7-9c-11.1,0-22.1,1.1-29.5,18.4v582.8v15.3l22.7-1.1c13.7,0,36.4-7.9,36.4-17.4
			L360.7,61.1L360.7,61.1z M360.2,1636.5c-7.4,17.4-17.9,18.4-29,18.4s-22.1-1.1-29.5-18.4V673.8v-15.3l22.7,1.1
			c13.7,0,36.4,7.9,36.4,17.4L360.2,1636.5z M243.2,1636.5c7.4,17.4,17.9,18.4,29,18.4s22.1-1.1,29.5-18.4l-0.5-962.7v-15.3
			l-22.7,1.1c-13.7,0-36.4,7.9-36.4,17.4L243.2,1636.5z M419.5,358.4c7.4-17.4,17.9-18.4,29-18.4s22.1,1.1,29.5,18.4l-0.5,562.8
			v15.3l-22.7-1.1c-13.7,0-36.4-7.9-36.4-17.4L419.5,358.4z M537,358.4c-1.6-4.2-3.7-7.4-5.8-9.5c-6.8-7.9-15.3-9-23.7-9
			c-11.1,0-22.1,1.1-29.5,18.4v562.8v15.3l22.7-1.1c13.7,0,36.4-7.9,36.4-17.4L537,358.4z M536.4,1636.2
			c-7.4,17.4-17.9,18.4-29,18.4s-22.1-1.1-29.5-18.4v-685v-15.3l22.7,1.1c13.7,0,36.4,7.9,36.4,17.4L536.4,1636.2z M419.5,1636.2
			c7.4,17.4,17.9,18.4,29,18.4s22.1-1.1,29.5-18.4l-0.5-685v-15.3l-22.7,1.1c-13.7,0-36.4,7.9-36.4,17.4L419.5,1636.2z M597.7,533.9
			c7.4-17.4,17.9-18.4,29-18.4s22.1,1.1,29.5,18.4l-1.1,258.7v15.3l-22.1-1.6c-13.7,0-36.4-7.9-36.4-17.4L597.7,533.9z M715.2,533.9
			c-1.6-4.2-3.7-7.4-5.8-9.5c-6.8-7.9-15.3-9-23.7-9c-11.1,0-22.1,1.1-29.5,18.4v258.7v15.3l22.7-1.1c13.7,0,36.4-7.9,36.4-17.4
			L715.2,533.9L715.2,533.9z M714.6,1635.2c-7.4,17.4-17.9,18.4-29,18.4s-22.1-1.1-29.5-18.4V822.7v-15.3l22.7,1.1
			c13.7,0,36.4,7.9,36.4,17.4L714.6,1635.2z M597.7,1635.2c7.4,17.4,17.9,18.4,29,18.4s22.1-1.1,29.5-18.4l-0.5-812.5v-15.3
			l-22.7,1.1c-13.7,0-36.4,7.9-36.4,17.4L597.7,1635.2z M777.4,477c7.4-17.4,17.9-18.4,29-18.4s22.1,1.1,29.5,18.4l-1.1,277.2v15.3
			l-22.7-1.1c-13.7,0-36.4-7.9-36.4-17.4L777.4,477z M894.9,477c-1.6-4.2-3.7-7.4-5.8-9.5c-6.8-7.9-15.3-9-23.7-9
			c-11.1,0-22.1,1.1-29.5,18.4v277.2v15.3l22.7-1.1c13.7,0,36.4-7.9,36.4-17.4L894.9,477L894.9,477z M894.4,1635.1
			c-7.4,17.4-17.9,18.4-29,18.4s-22.1-1.1-29.5-18.4v-851v-15.3l22.7,1.1c13.7,0,36.4,7.9,36.4,17.4L894.4,1635.1z M777.4,1635.1
			c7.4,17.4,17.9,18.4,29,18.4s22.1-1.1,29.5-18.4l-0.5-851v-15.3l-22.7,1.1c-13.7,0-36.4,7.9-36.4,17.4L777.4,1635.1z M954.5,539.7
			c7.4-17.4,17.9-18.4,29-18.4s22.1,1.1,29.5,18.4l-1.1,363.6v15.3l-22.7-1.1c-13.7,0-36.4-7.9-36.4-17.4L954.5,539.7z M1072,539.7
			c-1.6-4.2-3.7-7.4-5.8-9.5c-6.9-7.9-15.3-9-23.7-9c-11.1,0-22.1,1.1-29.5,18.4l-0.5,363.6v15.3l22.7-1.1
			c13.7,0,36.4-7.9,36.4-17.4L1072,539.7z M1071.4,1634.7c-7.4,17.4-17.9,18.4-29,18.4s-22.1-1.1-29.5-18.4V933.4v-15.3l22.7,1.1
			c13.7,0,36.4,7.9,36.4,17.4L1071.4,1634.7z M954.5,1634.7c7.4,17.4,17.9,18.4,29,18.4s22.1-1.1,29.5-18.4l-0.5-701.3v-15.3
			l-22.7,1.1c-13.7,0-36.4,7.9-36.4,17.4L954.5,1634.7z M1314.9,708.4c7.4-17.4,17.9-18.4,29-18.4s22.1,1.1,29.5,18.4l-0.5,267.1
			v15.3l-22.7-1.1c-13.7,0-36.4-7.9-36.4-17.4L1314.9,708.4z M1432.4,708.4c-1.6-4.2-3.7-7.4-5.8-9.5c-6.8-7.9-15.3-9-23.7-9
			c-11.1,0-22.1,1.1-29.5,18.4v267.1v15.3l22.7-1.1c13.7,0,36.4-7.9,36.4-17.4L1432.4,708.4L1432.4,708.4z M1431.9,1634.7
			c-7.4,17.4-17.9,18.4-29,18.4s-22.1-1.1-29.5-18.4v-628.6v-15.3l22.7,1.1c13.7,0,36.4,7.9,36.4,17.4L1431.9,1634.7z
			 M1314.9,1634.7c7.4,17.4,17.9,18.4,29,18.4s22.1-1.1,29.5-18.4l-0.5-628.6v-15.3l-22.7,1.1c-13.7,0-36.4,7.9-36.4,17.4
			L1314.9,1634.7z M1496.6,740c7.4-17.4,17.9-18.4,29-18.4s22.1,1.1,29.5,18.4l-1.1,316.7v15.3l-22.7-1.1
			c-13.7,0-36.4-7.9-36.4-17.4L1496.6,740z M1614.1,740c-1.6-4.2-3.7-7.4-5.8-9.5c-6.8-7.9-15.3-9-23.7-9
			c-11.1,0-22.1,1.1-29.5,18.4v316.7v15.3l22.7-1.1c13.7,0,36.4-7.9,36.4-17.4L1614.1,740L1614.1,740z M1613.5,1634.7
			c-7.4,17.4-17.9,18.4-29,18.4s-22.1-1.1-29.5-18.4v-547.5v-15.3l22.7,1.1c13.7,0,36.4,7.9,36.4,17.4L1613.5,1634.7z
			 M1496.6,1634.7c7.4,17.4,17.9,18.4,29,18.4s22.1-1.1,29.5-18.4l-0.5-547.5v-15.3l-22.7,1.1c-13.7,0-36.4,7.9-36.4,17.4
			L1496.6,1634.7z M1676.3,782.1c7.4-17.4,17.9-18.4,29-18.4s22.1,1.1,29.5,18.4l-1.1,229.2v15.3l-22.7-1.1
			c-13.7,0-36.4-7.9-36.4-17.4L1676.3,782.1z M1793.8,782.1c-1.6-4.2-3.7-7.4-5.8-9.5c-6.9-7.9-15.3-9-23.7-9
			c-11.1,0-22.1,1.1-29.5,18.4v229.2v15.3l22.7-1.1c13.7,0,36.4-7.9,36.4-17.4L1793.8,782.1L1793.8,782.1z M1793.3,1634.7
			c-7.4,17.4-17.9,18.4-29,18.4s-22.1-1.1-29.5-18.4v-593.3v-15.3l22.7,1.1c13.7,0,36.4,7.9,36.4,17.4L1793.3,1634.7z
			 M1676.3,1634.7c7.4,17.4,17.9,18.4,29,18.4s22.1-1.1,29.5-18.4l-0.5-593.3v-15.3l-22.7,1.1c-13.7,0-36.4,7.9-36.4,17.4
			L1676.3,1634.7z M1853.5,782.1c7.4-17.4,17.9-18.4,29-18.4s22.1,1.1,29.5,18.4l-1.1,319.3v15.3l-22.7-1.1
			c-13.7,0-36.4-7.9-36.4-17.4L1853.5,782.1z M1971,782.1c-1.6-4.2-3.7-7.4-5.8-9.5c-6.8-7.9-15.3-9-23.7-9
			c-11.1,0-22.1,1.1-29.5,18.4v319.3v15.3l22.7-1.1c13.7,0,36.4-7.9,36.4-17.4L1971,782.1L1971,782.1z M1970.5,1634.7
			c-7.4,17.4-17.9,18.4-29,18.4s-22.1-1.1-29.5-18.4V1132v-15.3l22.7,1.1c13.7,0,36.4,7.9,36.4,17.4L1970.5,1634.7z M1853.5,1634.7
			c7.4,17.4,17.9,18.4,29,18.4s22.1-1.1,29.5-18.4l-0.5-502.7v-15.3l-22.7,1.1c-13.7,0-36.4,7.9-36.4,17.4L1853.5,1634.7z
			 M2037.7,785.2c7.4-17.4,17.9-18.4,29-18.4s22.1,1.1,29.5,18.4l-1.1,192.9v15.3l-22.7-1.1c-13.7,0-36.4-7.9-36.4-17.4
			L2037.7,785.2z M2155.2,785.2c-1.6-4.2-3.7-7.4-5.8-9.5c-6.8-7.9-15.3-9-23.7-9c-11.1,0-22.1,1.1-29.5,18.4V978v15.3l22.7-1.1
			c13.7,0,36.4-7.9,36.4-17.4L2155.2,785.2L2155.2,785.2z M2154.7,1634.6c-7.4,17.4-17.9,18.4-29,18.4s-22.1-1.1-29.5-18.4v-626
			v-15.3l22.7,1.1c13.7,0,36.4,7.9,36.4,17.4L2154.7,1634.6z M2037.7,1634.6c7.4,17.4,17.9,18.4,29,18.4s22.1-1.1,29.5-18.4
			l-0.5-626v-15.3l-22.7,1.1c-13.7,0-36.4,7.9-36.4,17.4L2037.7,1634.6z M1140.3,624.1c7.4-17.4,17.9-18.4,29-18.4
			s22.1,1.1,29.5,18.4l-1.1,356.2v15.3l-22.7-1.1c-13.7,0-36.4-7.9-36.4-17.4L1140.3,624.1z M1257.8,624.1c-1.6-4.2-3.7-7.4-5.8-9.5
			c-6.8-7.9-15.3-9-23.7-9c-11.1,0-22.1,1.1-29.5,18.4v356.2v15.3l22.7-1.1c13.7,0,36.4-7.9,36.4-17.4L1257.8,624.1L1257.8,624.1z
			 M1257.2,1634.7c-7.4,17.4-17.9,18.4-29,18.4s-22.1-1.1-29.5-18.4v-623.9v-15.3l22.7,1.1c13.7,0,36.4,7.9,36.4,17.4L1257.2,1634.7
			z M1140.3,1634.7c7.4,17.4,17.9,18.4,29,18.4s22.1-1.1,29.5-18.4l-0.5-624.4V995l-22.7,1.6c-13.7,0-36.4,7.9-36.4,17.4
			L1140.3,1634.7z M1141.5,2456.9c7.4-17.4,17.9-18.4,29-18.4s22.1,1.1,29.5,18.4l-1.1,142.3v15.3l-22.7-1.1
			c-13.7,0-36.4-7.9-36.4-17.4L1141.5,2456.9z M1259,2456.9c-1.6-4.2-3.7-7.4-5.8-9.5c-6.8-7.9-15.3-9-23.7-9
			c-11.1,0-22.1,1.1-29.5,18.4l-0.5,142.3v15.3l22.7-1.1c13.7,0,36.4-7.9,36.4-17.4L1259,2456.9z M1258.5,2817.9
			c-7.4,17.4-17.9,18.4-29,18.4s-22.1-1.1-29.5-18.4l-0.5-188.6V2614l22.7,1.1c13.7,0,36.4,7.9,36.4,17.4L1258.5,2817.9
			L1258.5,2817.9z M1141.5,2817.9c7.4,17.4,17.9,18.4,29,18.4s22.1-1.1,29.5-18.4l-1.1-188.6V2614l-22.7,1.1
			c-13.7,0-36.4,7.9-36.4,17.4L1141.5,2817.9z"/>
	</defs>
	<clipPath id="SVGID_2_">
		<use xlink:href="#SVGID_1_"  style="overflow:visible;"/>
	</clipPath>
	<g class="st2">
<rect x="1677.6000000000001" y="2603.1721778583997" fill="#fbafe4" width="59.3"             height="0.5639831257904007"/>
<rect x="1677.6000000000001" y="2603.7378291554014" fill="#fbafe4" width="59.3"             height="0.9397723235783673"/>
<rect x="1677.6000000000001" y="2604.678966957834" fill="#fbafe4" width="59.3"             height="0.9421602299491241"/>
<rect x="1677.6000000000001" y="2605.6218334699493" fill="#fbafe4" width="59.3"             height="0.8746127488925595"/>
<rect x="1677.6000000000001" y="2606.496452945338" fill="#fbafe4" width="59.3"             height="0.7308675118701871"/>
<rect x="1677.6000000000001" y="2607.2274011751706" fill="#fbafe4" width="59.3"             height="0.749264480670206"/>
<rect x="1677.6000000000001" y="2607.9775199209366" fill="#fbafe4" width="59.3"             height="0.6849658975772286"/>
<rect x="1677.6000000000001" y="2608.662627074947" fill="#fbafe4" width="59.3"             height="0.6963673096854421"/>
<rect x="1677.6000000000001" y="2609.359001111129" fill="#fbafe4" width="59.3"             height="0.5808397268188514"/>
<rect x="1677.6000000000001" y="2609.941932778459" fill="#fbafe4" width="59.3"             height="0.5603709969985999"/>
<rect x="1677.6000000000001" y="2610.503225305522" fill="#fbafe4" width="59.3"             height="0.7220356215468229"/>
<rect x="1677.6000000000001" y="2611.226135371655" fill="#fbafe4" width="59.3"             height="0.643423053222989"/>
<rect x="1677.6000000000001" y="2611.871455296981" fill="#fbafe4" width="59.3"             height="0.6902932830578976"/>
<rect x="1677.6000000000001" y="2612.5621992553256" fill="#fbafe4" width="59.3"             height="0.5644808865550175"/>
<rect x="1677.6000000000001" y="2613.1269761077406" fill="#fbafe4" width="59.3"             height="0.6623446887748798"/>
<rect x="1677.6000000000001" y="2613.7893611554964" fill="#fbafe4" width="59.3"             height="0.49970472218788586"/>
<rect x="1677.6000000000001" y="2614.290707142908" fill="#fbafe4" width="59.3"             height="0.6256381956335133"/>
<rect x="1677.6000000000001" y="2614.916567312937" fill="#fbafe4" width="59.3"             height="1.3739206077681274"/>
<rect x="1677.6000000000001" y="2616.2916785106418" fill="#fbafe4" width="59.3"             height="1.07048160976548"/>
<rect x="1677.6000000000001" y="2617.362570436713" fill="#fbafe4" width="59.3"             height="0.6360642657029842"/>
<rect x="1677.6000000000001" y="2617.9992199076396" fill="#fbafe4" width="59.3"             height="0.6377862488886592"/>
<rect x="1677.6000000000001" y="2618.637416472834" fill="#fbafe4" width="59.3"             height="0.7024211568225667"/>
<rect x="1677.6000000000001" y="2619.3413241854537" fill="#fbafe4" width="59.3"             height="0.9533463941591549"/>
<rect x="1677.6000000000001" y="2620.295450853244" fill="#fbafe4" width="59.3"             height="0.905695890693238"/>
<rect x="1677.6000000000001" y="2621.203003257059" fill="#fbafe4" width="59.3"             height="0.569142348850562"/>
<rect x="1677.6000000000001" y="2621.7721523324067" fill="#fbafe4" width="59.3"             height="0.6288601876098028"/>
<rect x="1677.6000000000001" y="2622.401395930335" fill="#fbafe4" width="59.3"             height="0.727558075435212"/>
<rect x="1677.6000000000001" y="2623.129888988828" fill="#fbafe4" width="59.3"             height="0.6589141753971717"/>
<rect x="1677.6000000000001" y="2623.7891327625694" fill="#fbafe4" width="59.3"             height="0.6975511731255892"/>
<rect x="1677.6000000000001" y="2624.4876323717467" fill="#fbafe4" width="59.3"             height="0.8324914258118952"/>
<rect x="1677.6000000000001" y="2625.3206148318263" fill="#fbafe4" width="59.3"             height="0.6612213638061064"/>
<rect x="1677.6000000000001" y="2625.9819438195814" fill="#fbafe4" width="59.3"             height="1.4648830242516624"/>
<rect x="1677.6000000000001" y="2627.447432228547" fill="#fbafe4" width="59.3"             height="2.112146907158319"/>
<rect x="1677.6000000000001" y="2629.5600096315015" fill="#fbafe4" width="59.3"             height="0.8370116316742724"/>
<rect x="1677.6000000000001" y="2630.397095254641" fill="#fbafe4" width="59.3"             height="0.5811222396852713"/>
<rect x="1677.6000000000001" y="2630.978338571269" fill="#fbafe4" width="59.3"             height="0.623922938944645"/>
<rect x="1677.6000000000001" y="2631.6030081513604" fill="#fbafe4" width="59.3"             height="0.8662920723274397"/>
<rect x="1677.6000000000001" y="2632.469663454516" fill="#fbafe4" width="59.3"             height="0.8434488891300589"/>
<rect x="1677.6000000000001" y="2633.31356974543" fill="#fbafe4" width="59.3"             height="0.6386539669782962"/>
<rect x="1677.6000000000001" y="2633.9524658662936" fill="#fbafe4" width="59.3"             height="1.996827845693133"/>
<rect x="1677.6000000000001" y="2635.9493475239615" fill="#fbafe4" width="59.3"             height="1.7334854952286491"/>
<rect x="1677.6000000000001" y="2637.683310600464" fill="#fbafe4" width="59.3"             height="0.6903403685356295"/>
<rect x="1677.6000000000001" y="2638.373926755369" fill="#fbafe4" width="59.3"             height="0.8683571068508797"/>
<rect x="1677.6000000000001" y="2639.243635888081" fill="#fbafe4" width="59.3"             height="0.8325250582959711"/>
<rect x="1677.6000000000001" y="2640.0776273226834" fill="#fbafe4" width="59.3"             height="0.6477347376839759"/>
<rect x="1677.6000000000001" y="2640.72681498368" fill="#fbafe4" width="59.3"             height="0.5151823913684268"/>
<rect x="1677.6000000000001" y="2641.2426363922464" fill="#fbafe4" width="59.3"             height="0.588420488733874"/>
<rect x="1677.6000000000001" y="2641.8334649668413" fill="#fbafe4" width="59.3"             height="0.7857355464228988"/>
<rect x="1677.6000000000001" y="2642.6193148637103" fill="#fbafe4" width="59.3"             height="0.5986918493765359"/>
<rect x="1677.6000000000001" y="2643.218087431049" fill="#fbafe4" width="59.3"             height="0.7645874404239237"/>
<rect x="1677.6000000000001" y="2643.982896845868" fill="#fbafe4" width="59.3"             height="0.5727477511455845"/>
<rect x="1677.6000000000001" y="2644.555664776504" fill="#fbafe4" width="59.3"             height="0.4673300929979689"/>
<rect x="1677.6000000000001" y="2645.02335810033" fill="#fbafe4" width="59.3"             height="0.5944339768900875"/>
<rect x="1677.6000000000001" y="2645.6196620433357" fill="#fbafe4" width="59.3"             height="0.636871445321276"/>
<rect x="1677.6000000000001" y="2646.256607480122" fill="#fbafe4" width="59.3"             height="0.7493384721352072"/>
<rect x="1677.6000000000001" y="2647.00665896092" fill="#fbafe4" width="59.3"             height="0.9114806779575986"/>
<rect x="1677.6000000000001" y="2647.9182203568394" fill="#fbafe4" width="59.3"             height="0.6420373948782867"/>
<rect x="1677.6000000000001" y="2648.5604931791063" fill="#fbafe4" width="59.3"             height="0.5306936930331005"/>
<rect x="1677.6000000000001" y="2649.091307949082" fill="#fbafe4" width="59.3"             height="0.5106554590092287"/>
<rect x="1677.6000000000001" y="2649.602716775735" fill="#fbafe4" width="59.3"             height="0.49775403811040064"/>
<rect x="1677.6000000000001" y="2650.1008407711706" fill="#fbafe4" width="59.3"             height="0.4829759245990033"/>
<rect x="1677.6000000000001" y="2650.5845364309293" fill="#fbafe4" width="59.3"             height="0.5607745868077245"/>
<rect x="1677.6000000000001" y="2651.1468513855084" fill="#fbafe4" width="59.3"             height="0.5769921706383911"/>
<rect x="1677.6000000000001" y="2651.7242673254464" fill="#fbafe4" width="59.3"             height="0.6166986813610151"/>
<rect x="1677.6000000000001" y="2652.3411947076993" fill="#fbafe4" width="59.3"             height="0.5556355432379974"/>
<rect x="1677.6000000000001" y="2652.8975365331034" fill="#fbafe4" width="59.3"             height="1.0723448493843648"/>
<rect x="1677.6000000000001" y="2653.9701033568826" fill="#fbafe4" width="59.3"             height="1.1333474490360231"/>
<rect x="1677.6000000000001" y="2655.104923908722" fill="#fbafe4" width="59.3"             height="0.6786497170641894"/>
<rect x="1677.6000000000001" y="2655.7840713865507" fill="#fbafe4" width="59.3"             height="0.8140675510245785"/>
<rect x="1677.6000000000001" y="2656.598831766748" fill="#fbafe4" width="59.3"             height="0.8774715100406354"/>
<rect x="1677.6000000000001" y="2657.476357088763" fill="#fbafe4" width="59.3"             height="0.7341634953115204"/>
<rect x="1677.6000000000001" y="2658.21061475503" fill="#fbafe4" width="59.3"             height="0.6114452873453331"/>
<rect x="1677.6000000000001" y="2658.8221340338405" fill="#fbafe4" width="59.3"             height="0.6292906834062535"/>
<rect x="1677.6000000000001" y="2659.4517206831065" fill="#fbafe4" width="59.3"             height="0.5466085845068562"/>
<rect x="1677.6000000000001" y="2659.99833599411" fill="#fbafe4" width="59.3"             height="0.7285939559453993"/>
<rect x="1677.6000000000001" y="2660.7280936340053" fill="#fbafe4" width="59.3"             height="0.9935775716336934"/>
<rect x="1677.6000000000001" y="2661.7223169493336" fill="#fbafe4" width="59.3"             height="0.6036560040289203"/>
<rect x="1677.6000000000001" y="2662.3260873038084" fill="#fbafe4" width="59.3"             height="0.40823781844289897"/>
<rect x="1677.6000000000001" y="2662.7344394726974" fill="#fbafe4" width="59.3"             height="0.4771171458696415"/>
<rect x="1677.6000000000001" y="2663.2116575160194" fill="#fbafe4" width="59.3"             height="0.5031486885592358"/>
<rect x="1677.6000000000001" y="2663.714947461012" fill="#fbafe4" width="59.3"             height="0.6182188696421065"/>
<rect x="1677.6000000000001" y="2664.3352246386803" fill="#fbafe4" width="59.3"             height="0.900630838588512"/>
<rect x="1677.6000000000001" y="2665.235963101218" fill="#fbafe4" width="59.3"             height="0.6864390003806022"/>
<rect x="1677.6000000000001" y="2665.9226711614715" fill="#fbafe4" width="59.3"             height="0.5618104673178834"/>
<rect x="1677.6000000000001" y="2666.4881408430588" fill="#fbafe4" width="59.3"             height="0.7081924910932855"/>
<rect x="1677.6000000000001" y="2667.1968109154263" fill="#fbafe4" width="59.3"             height="0.7184436722454279"/>
<rect x="1677.6000000000001" y="2667.9156985364616" fill="#fbafe4" width="59.3"             height="0.7946145222240375"/>
<rect x="1677.6000000000001" y="2668.7112884007247" fill="#fbafe4" width="59.3"             height="0.6879255561775608"/>
<rect x="1677.6000000000001" y="2669.399294674864" fill="#fbafe4" width="59.3"             height="0.6192009381776984"/>
<rect x="1677.6000000000001" y="2670.018596510494" fill="#fbafe4" width="59.3"             height="0.8240563988008489"/>
<rect x="1677.6000000000001" y="2670.8428547041995" fill="#fbafe4" width="59.3"             height="0.7496344379952404"/>
<rect x="1677.6000000000001" y="2671.594264937355" fill="#fbafe4" width="59.3"             height="0.6384588985705193"/>
<rect x="1677.6000000000001" y="2672.232730562422" fill="#fbafe4" width="59.3"             height="0.7890046238769344"/>
<rect x="1677.6000000000001" y="2673.0240827336893" fill="#fbafe4" width="59.3"             height="0.6436517541148135"/>
<rect x="1677.6000000000001" y="2673.6684609494605" fill="#fbafe4" width="59.3"             height="0.6333669404785383"/>
<rect x="1677.6000000000001" y="2674.302937761914" fill="#fbafe4" width="59.3"             height="0.5614539629864339"/>
<rect x="1677.6000000000001" y="2674.8646876907605" fill="#fbafe4" width="59.3"             height="0.6499208491501349"/>
<rect x="1677.6000000000001" y="2675.5153619075545" fill="#fbafe4" width="59.3"             height="0.6316584102865193"/>
<rect x="1677.6000000000001" y="2676.1477400530007" fill="#fbafe4" width="59.3"             height="0.5513171322801895"/>
<rect x="1677.6000000000001" y="2676.699635664007" fill="#fbafe4" width="59.3"             height="0.6472369769193449"/>
<rect x="1677.6000000000001" y="2677.3469129999075" fill="#fbafe4" width="59.3"             height="0.5840079068206308"/>
<rect x="1677.6000000000001" y="2677.9321316761557" fill="#fbafe4" width="59.3"             height="0.7153831161927826"/>
<rect x="1677.6000000000001" y="2678.648120177062" fill="#fbafe4" width="59.3"             height="0.7733991512568252"/>
<rect x="1677.6000000000001" y="2679.4227300977464" fill="#fbafe4" width="59.3"             height="1.255628434708882"/>
<rect x="1677.6000000000001" y="2680.680517737934" fill="#fbafe4" width="59.3"             height="1.1102284794690434"/>
<rect x="1677.6000000000001" y="2681.7908067558747" fill="#fbafe4" width="59.3"             height="1.2342852603021868"/>
<rect x="1677.6000000000001" y="2683.0250987426734" fill="#fbafe4" width="59.3"             height="1.2759222756118902"/>
<rect x="1677.6000000000001" y="2684.3069268824925" fill="#fbafe4" width="59.3"             height="1.25948271738622"/>
<rect x="1677.6000000000001" y="2685.566988078605" fill="#fbafe4" width="59.3"             height="0.8743907744975559"/>
<rect x="1677.6000000000001" y="2686.4414595710646" fill="#fbafe4" width="59.3"             height="0.9054201043236674"/>
<rect x="1677.6000000000001" y="2687.3471218292734" fill="#fbafe4" width="59.3"             height="0.8366416743492096"/>
<rect x="1677.6000000000001" y="2688.1858621706306" fill="#fbafe4" width="59.3"             height="0.682342563817798"/>
<rect x="1677.6000000000001" y="2688.8686755892254" fill="#fbafe4" width="59.3"             height="0.8556036688819972"/>
<rect x="1677.6000000000001" y="2689.7249586342864" fill="#fbafe4" width="59.3"             height="0.8408255553706283"/>
<rect x="1677.6000000000001" y="2690.566194505963" fill="#fbafe4" width="59.3"             height="0.8513592493892475"/>
<rect x="1677.6000000000001" y="2691.417742097263" fill="#fbafe4" width="59.3"             height="0.9954340847557432"/>
<rect x="1677.6000000000001" y="2692.4133712504267" fill="#fbafe4" width="59.3"             height="0.791964282477295"/>
<rect x="1677.6000000000001" y="2693.206512669847" fill="#fbafe4" width="59.3"             height="0.755143438890002"/>
<rect x="1677.6000000000001" y="2693.961703194215" fill="#fbafe4" width="59.3"             height="0.8648256960208869"/>
<rect x="1677.6000000000001" y="2694.827860736606" fill="#fbafe4" width="59.3"             height="0.9912569302311169"/>
<rect x="1677.6000000000001" y="2695.8211894278575" fill="#fbafe4" width="59.3"             height="1.0275800130537789"/>
<rect x="1677.6000000000001" y="2696.849226842695" fill="#fbafe4" width="59.3"             height="0.8709938936039237"/>
<rect x="1677.6000000000001" y="2697.721962898975" fill="#fbafe4" width="59.3"             height="0.7081857645964647"/>
<rect x="1677.6000000000001" y="2698.43068005682" fill="#fbafe4" width="59.3"             height="0.6702954080149652"/>
<rect x="1677.6000000000001" y="2699.101654841014" fill="#fbafe4" width="59.3"             height="0.8318053231363649"/>
<rect x="1677.6000000000001" y="2699.9345296771444" fill="#fbafe4" width="59.3"             height="1.0248423288484787"/>
<rect x="1677.6000000000001" y="2700.959593980388" fill="#fbafe4" width="59.3"             height="0.8855769387075725"/>
<rect x="1677.6000000000001" y="2701.8453189020256" fill="#fbafe4" width="59.3"             height="0.9779048340453755"/>
<rect x="1677.6000000000001" y="2702.8239031122494" fill="#fbafe4" width="59.3"             height="1.087674535634875"/>
<rect x="1677.6000000000001" y="2703.911765989795" fill="#fbafe4" width="59.3"             height="0.8756149969185856"/>
<rect x="1677.6000000000001" y="2704.787784576523" fill="#fbafe4" width="59.3"             height="0.7566838066616128"/>
<rect x="1677.6000000000001" y="2705.5457329645865" fill="#fbafe4" width="59.3"             height="0.8498256081144859"/>
<rect x="1677.6000000000001" y="2706.3959083505356" fill="#fbafe4" width="59.3"             height="0.9001734368048346"/>
<rect x="1677.6000000000001" y="2707.2960885138373" fill="#fbafe4" width="59.3"             height="0.823915142367639"/>
<rect x="1677.6000000000001" y="2708.120191998116" fill="#fbafe4" width="59.3"             height="0.7786390922788655"/>
<rect x="1677.6000000000001" y="2708.8989857998217" fill="#fbafe4" width="59.3"             height="0.6523625674954872"/>
<rect x="1677.6000000000001" y="2709.5517519571263" fill="#fbafe4" width="59.3"             height="0.501406525883084"/>
<rect x="1677.6000000000001" y="2710.0538244061945" fill="#fbafe4" width="59.3"             height="0.583516872552849"/>
<rect x="1677.6000000000001" y="2710.6388816465187" fill="#fbafe4" width="59.3"             height="0.6225036481158384"/>
<rect x="1677.6000000000001" y="2711.2616207220235" fill="#fbafe4" width="59.3"             height="0.6808291020335275"/>
<rect x="1677.6000000000001" y="2711.9427928753944" fill="#fbafe4" width="59.3"             height="0.91616231974362"/>
<rect x="1677.6000000000001" y="2712.8593453319536" fill="#fbafe4" width="59.3"             height="0.8106504906405405"/>
<rect x="1677.6000000000001" y="2713.6713545749517" fill="#fbafe4" width="59.3"             height="0.810986815481499"/>
<rect x="1677.6000000000001" y="2714.48234811693" fill="#fbafe4" width="59.3"             height="0.821560868481015"/>
<rect x="1677.6000000000001" y="2715.30416459229" fill="#fbafe4" width="59.3"             height="0.7111050642159285"/>
<rect x="1677.6000000000001" y="2716.015908673704" fill="#fbafe4" width="59.3"             height="0.6983987117247921"/>
<rect x="1677.6000000000001" y="2716.714690795747" fill="#fbafe4" width="59.3"             height="0.6380553087613805"/>
<rect x="1677.6000000000001" y="2717.353593643108" fill="#fbafe4" width="59.3"             height="0.6727303998634397"/>
<rect x="1677.6000000000001" y="2718.0279451287047" fill="#fbafe4" width="59.3"             height="0.6862506584696462"/>
<rect x="1677.6000000000001" y="2718.715130770232" fill="#fbafe4" width="59.3"             height="0.6675980827905619"/>
<rect x="1677.6000000000001" y="2719.383092083851" fill="#fbafe4" width="59.3"             height="0.6194901775409107"/>
<rect x="1677.6000000000001" y="2720.0027436973155" fill="#fbafe4" width="59.3"             height="0.6977126090492334"/>
<rect x="1677.6000000000001" y="2720.7010347850915" fill="#fbafe4" width="59.3"             height="0.7833274605616793"/>
<rect x="1677.6000000000001" y="2721.4844295106213" fill="#fbafe4" width="59.3"             height="0.7234616388724646"/>
<rect x="1677.6000000000001" y="2722.209249901851" fill="#fbafe4" width="59.3"             height="0.7975203688498311"/>
<rect x="1677.6000000000001" y="2723.0094205104474" fill="#fbafe4" width="59.3"             height="0.7073651319845169"/>
<rect x="1677.6000000000001" y="2723.7169201723686" fill="#fbafe4" width="59.3"             height="0.5426332248868562"/>
<rect x="1677.6000000000001" y="2724.260152055472" fill="#fbafe4" width="59.3"             height="0.5248416408005596"/>
<rect x="1677.6000000000001" y="2724.785646166464" fill="#fbafe4" width="59.3"             height="0.5958263617316106"/>
<rect x="1677.6000000000001" y="2725.3816003316356" fill="#fbafe4" width="59.3"             height="0.6748156138773425"/>
<rect x="1677.6000000000001" y="2726.056489936978" fill="#fbafe4" width="59.3"             height="0.6094138853060258"/>
<rect x="1677.6000000000001" y="2726.6662536001186" fill="#fbafe4" width="59.3"             height="0.7307262554370197"/>
<rect x="1677.6000000000001" y="2727.3976457787403" fill="#fbafe4" width="59.3"             height="0.6594052096649818"/>
<rect x="1677.6000000000001" y="2728.0576765526093" fill="#fbafe4" width="59.3"             height="0.7364774102172476"/>
<rect x="1677.6000000000001" y="2728.795680877605" fill="#fbafe4" width="59.3"             height="0.6481652334803698"/>
<rect x="1677.6000000000001" y="2729.444290059875" fill="#fbafe4" width="59.3"             height="0.8523614974152451"/>
<rect x="1677.6000000000001" y="2730.2973107539788" fill="#fbafe4" width="59.3"             height="0.7137014919880471"/>
<rect x="1677.6000000000001" y="2731.0111333229097" fill="#fbafe4" width="59.3"             height="0.706288892493518"/>
<rect x="1677.6000000000001" y="2731.7179939676325" fill="#fbafe4" width="59.3"             height="0.7005646437005169"/>
<rect x="1677.6000000000001" y="2732.418672961779" fill="#fbafe4" width="59.3"             height="0.9094560024150553"/>
<rect x="1677.6000000000001" y="2733.3296020669977" fill="#fbafe4" width="59.3"             height="1.3806471045871547"/>
<rect x="1677.6000000000001" y="2734.7116281034328" fill="#fbafe4" width="59.3"             height="0.7626771153273069"/>
<rect x="1677.6000000000001" y="2735.4760002959583" fill="#fbafe4" width="59.3"             height="0.4886127289333331"/>
<rect x="1677.6000000000001" y="2735.9653663925355" fill="#fbafe4" width="59.3"             height="0.6442638653253425"/>
<rect x="1677.6000000000001" y="2736.6096706168414" fill="#fbafe4" width="59.3"             height="0.7495335405429557"/>
<rect x="1677.6000000000001" y="2737.359661559168" fill="#fbafe4" width="59.3"             height="0.6052569102718621"/>
<rect x="1677.6000000000001" y="2737.96549022167" fill="#fbafe4" width="59.3"             height="0.6638312445718952"/>
<rect x="1677.6000000000001" y="2738.6298461329934" fill="#fbafe4" width="59.3"             height="0.8186146628742677"/>
<rect x="1677.6000000000001" y="2739.448642411282" fill="#fbafe4" width="59.3"             height="0.7547533020744766"/>
<rect x="1677.6000000000001" y="2740.2034360723374" fill="#fbafe4" width="59.3"             height="0.6589209018939925"/>
<rect x="1677.6000000000001" y="2740.862780743531" fill="#fbafe4" width="59.3"             height="0.653472439470562"/>
<rect x="1677.6000000000001" y="2741.5162599094983" fill="#fbafe4" width="59.3"             height="0.712699243962021"/>
<rect x="1677.6000000000001" y="2742.230687863143" fill="#fbafe4" width="59.3"             height="0.6204587930828325"/>
<rect x="1677.6000000000001" y="2742.851839485398" fill="#fbafe4" width="59.3"             height="0.6416136255786853"/>
<rect x="1677.6000000000001" y="2743.493486743461" fill="#fbafe4" width="59.3"             height="0.6277570421314635"/>
<rect x="1677.6000000000001" y="2744.121337956548" fill="#fbafe4" width="59.3"             height="0.8020069422280756"/>
<rect x="1677.6000000000001" y="2744.92382248005" fill="#fbafe4" width="59.3"             height="0.6477952761553638"/>
<rect x="1677.6000000000001" y="2745.573191756461" fill="#fbafe4" width="59.3"             height="0.7326702130177125"/>
<rect x="1677.6000000000001" y="2746.3059023284595" fill="#fbafe4" width="59.3"             height="0.8759445952626947"/>
<rect x="1677.6000000000001" y="2747.182230334041" fill="#fbafe4" width="59.3"             height="1.0614950100152782"/>
<rect x="1677.6000000000001" y="2748.2455347717005" fill="#fbafe4" width="59.3"             height="0.7499640363393496"/>
<rect x="1677.6000000000001" y="2748.9958485858747" fill="#fbafe4" width="59.3"             height="0.6850129830549463"/>
<rect x="1677.6000000000001" y="2749.6814736801402" fill="#fbafe4" width="59.3"             height="0.7602152174915773"/>
<rect x="1677.6000000000001" y="2750.4418705130456" fill="#fbafe4" width="59.3"             height="0.822926347335283"/>
<rect x="1677.6000000000001" y="2751.26843589516" fill="#fbafe4" width="59.3"             height="1.1228742934887919"/>
<rect x="1677.6000000000001" y="2752.392938000879" fill="#fbafe4" width="59.3"             height="0.9254314323602557"/>
<rect x="1677.6000000000001" y="2753.3187595700547" fill="#fbafe4" width="59.3"             height="0.8031033612095939"/>
<rect x="1677.6000000000001" y="2754.121923469736" fill="#fbafe4" width="59.3"             height="0.6803111617784907"/>
<rect x="1677.6000000000001" y="2754.8023691614508" fill="#fbafe4" width="59.3"             height="0.611667261740422"/>
<rect x="1677.6000000000001" y="2755.4147225258666" fill="#fbafe4" width="59.3"             height="0.6656272192225288"/>
<rect x="1677.6000000000001" y="2756.0804439160447" fill="#fbafe4" width="59.3"             height="0.6170888181765122"/>
<rect x="1677.6000000000001" y="2756.697539460718" fill="#fbafe4" width="59.3"             height="0.5640033052808917"/>
<rect x="1677.6000000000001" y="2757.261825278865" fill="#fbafe4" width="59.3"             height="0.8107379350992119"/>
<rect x="1677.6000000000001" y="2758.0732627696334" fill="#fbafe4" width="59.3"             height="0.8395004354972571"/>
<rect x="1677.6000000000001" y="2758.9152587354506" fill="#fbafe4" width="59.3"             height="0.7711995867969677"/>
<rect x="1677.6000000000001" y="2759.687931425051" fill="#fbafe4" width="59.3"             height="1.1147554118282414"/>
<rect x="1677.6000000000001" y="2760.803850520829" fill="#fbafe4" width="59.3"             height="1.0775780639095274"/>
<rect x="1677.6000000000001" y="2761.8815025762037" fill="#fbafe4" width="59.3"             height="1.0383491344609865"/>
<rect x="1677.6000000000001" y="2762.9208741381813" fill="#fbafe4" width="59.3"             height="1.290175722371373"/>
<rect x="1677.6000000000001" y="2764.211117125521" fill="#fbafe4" width="59.3"             height="1.1150984631660208"/>
<rect x="1677.6000000000001" y="2765.332034008435" fill="#fbafe4" width="59.3"             height="0.9999744701085547"/>
<rect x="1677.6000000000001" y="2766.335560068864" fill="#fbafe4" width="59.3"             height="0.9191892433121893"/>
<rect x="1677.6000000000001" y="2767.2550789105208" fill="#fbafe4" width="59.3"             height="1.1301658160406305"/>
<rect x="1677.6000000000001" y="2768.385809752294" fill="#fbafe4" width="59.3"             height="1.0193400544504811"/>
<rect x="1677.6000000000001" y="2769.405674473496" fill="#fbafe4" width="59.3"             height="0.9220143719761609"/>
<rect x="1677.6000000000001" y="2770.3288121704413" fill="#fbafe4" width="59.3"             height="0.9226332096835108"/>
<rect x="1677.6000000000001" y="2771.252884850444" fill="#fbafe4" width="59.3"             height="1.0632371726914585"/>
<rect x="1677.6000000000001" y="2772.3171646301425" fill="#fbafe4" width="59.3"             height="0.9088304382108845"/>
<rect x="1677.6000000000001" y="2773.2274009061884" fill="#fbafe4" width="59.3"             height="1.0426204599411335"/>
<rect x="1677.6000000000001" y="2774.2710976056205" fill="#fbafe4" width="59.3"             height="0.9415952042163553"/>
<rect x="1677.6000000000001" y="2775.2131300321303" fill="#fbafe4" width="59.3"             height="0.8247223219858597"/>
<rect x="1677.6000000000001" y="2776.0399577476205" fill="#fbafe4" width="59.3"             height="0.9718644399019354"/>
<rect x="1677.6000000000001" y="2777.0120105294336" fill="#fbafe4" width="59.3"             height="0.7186723731373377"/>
<rect x="1677.6000000000001" y="2777.7312681077938" fill="#fbafe4" width="59.3"             height="0.7029660030649438"/>
<rect x="1677.6000000000001" y="2778.434644427165" fill="#fbafe4" width="59.3"             height="0.5584943043860449"/>
<rect x="1677.6000000000001" y="2778.9939324581755" fill="#fbafe4" width="59.3"             height="0.6335014704149557"/>
<rect x="1677.6000000000001" y="2779.6276895354695" fill="#fbafe4" width="59.3"             height="0.5931088570167162"/>
<rect x="1677.6000000000001" y="2780.2220226149075" fill="#fbafe4" width="59.3"             height="0.7326029480495322"/>
<rect x="1677.6000000000001" y="2780.9550829647405" fill="#fbafe4" width="59.3"             height="0.8668503715634301"/>
<rect x="1677.6000000000001" y="2781.826352644714" fill="#fbafe4" width="59.3"             height="0.6487975241814183"/>
<rect x="1677.6000000000001" y="2782.4763407588325" fill="#fbafe4" width="59.3"             height="0.5792522735695798"/>
<rect x="1677.6000000000001" y="2783.057153579664" fill="#fbafe4" width="59.3"             height="0.5909294720473781"/>
<rect x="1677.6000000000001" y="2783.6483991970617" fill="#fbafe4" width="59.3"             height="0.6584836796008062"/>
<rect x="1677.6000000000001" y="2784.3074882613764" fill="#fbafe4" width="59.3"             height="0.6763963406297648"/>
<rect x="1677.6000000000001" y="2784.9842007473567" fill="#fbafe4" width="59.3"             height="0.7516994725186805"/>
<rect x="1677.6000000000001" y="2785.7361894592386" fill="#fbafe4" width="59.3"             height="0.8221931591819498"/>
<rect x="1677.6000000000001" y="2786.559371413453" fill="#fbafe4" width="59.3"             height="0.8416461879825761"/>
<rect x="1677.6000000000001" y="2787.4043270378706" fill="#fbafe4" width="59.3"             height="0.6814008542631882"/>
<rect x="1677.6000000000001" y="2788.0861314819426" fill="#fbafe4" width="59.3"             height="0.7378765215555632"/>
<rect x="1677.6000000000001" y="2788.824431772798" fill="#fbafe4" width="59.3"             height="0.6050820213545762"/>
<rect x="1677.6000000000001" y="2789.4297694010315" fill="#fbafe4" width="59.3"             height="0.6511517980679855"/>
<rect x="1677.6000000000001" y="2790.0813315154055" fill="#fbafe4" width="59.3"             height="0.533471736219326"/>
<rect x="1677.6000000000001" y="2790.6156440637274" fill="#fbafe4" width="59.3"             height="0.5665593740720851"/>
<rect x="1677.6000000000001" y="2791.182364873723" fill="#fbafe4" width="59.3"             height="0.6653447063561657"/>
<rect x="1677.6000000000001" y="2791.8477163065763" fill="#fbafe4" width="59.3"             height="0.6106448342239332"/>
<rect x="1677.6000000000001" y="2792.4584284057682" fill="#fbafe4" width="59.3"             height="0.5897859675881705"/>
<rect x="1677.6000000000001" y="2793.0483489032927" fill="#fbafe4" width="59.3"             height="0.5240210081886403"/>
<rect x="1677.6000000000001" y="2793.5724775354306" fill="#fbafe4" width="59.3"             height="0.4977742176008064"/>
<rect x="1677.6000000000001" y="2794.070621710356" fill="#fbafe4" width="59.3"             height="0.39202023461223234"/>
<rect x="1677.6000000000001" y="2794.4629513638224" fill="#fbafe4" width="59.3"             height="0.658389508645314"/>
<rect x="1677.6000000000001" y="2795.1240987361634" fill="#fbafe4" width="59.3"             height="0.5222922985061587"/>
<rect x="1677.6000000000001" y="2795.646814803969" fill="#fbafe4" width="59.3"             height="0.653324456540588"/>
<rect x="1677.6000000000001" y="2796.3001594400002" fill="#fbafe4" width="59.3"             height="0.5992770545997246"/>
<rect x="1677.6000000000001" y="2796.899698827976" fill="#fbafe4" width="59.3"             height="0.6529948581964504"/>
<rect x="1677.6000000000001" y="2797.5538439171282" fill="#fbafe4" width="59.3"             height="0.8678929785703531"/>
<rect x="1677.6000000000001" y="2798.4221270325143" fill="#fbafe4" width="59.3"             height="0.6738268188449297"/>
<rect x="1677.6000000000001" y="2799.096169099257" fill="#fbafe4" width="59.3"             height="0.7591053455164456"/>
<rect x="1677.6000000000001" y="2799.856861898023" fill="#fbafe4" width="59.3"             height="0.8897809992194539"/>
<rect x="1677.6000000000001" y="2800.747033034058" fill="#fbafe4" width="59.3"             height="0.6344768124537268"/>
<rect x="1677.6000000000001" y="2801.381866350843" fill="#fbafe4" width="59.3"             height="0.5232541875512879"/>
<rect x="1677.6000000000001" y="2801.907326829351" fill="#fbafe4" width="59.3"             height="0.7317957684312546"/>
<rect x="1677.6000000000001" y="2802.6391898627503" fill="#fbafe4" width="59.3"             height="0.670752809798671"/>
<rect x="1677.6000000000001" y="2803.3101444674535" fill="#fbafe4" width="59.3"             height="0.6933874715946331"/>
<rect x="1677.6000000000001" y="2804.0035655715324" fill="#fbafe4" width="59.3"             height="0.49839305530815636"/>
<rect x="1677.6000000000001" y="2804.5019653533373" fill="#fbafe4" width="59.3"             height="0.47908800943758933"/>
<rect x="1677.6000000000001" y="2804.9812080722018" fill="#fbafe4" width="59.3"             height="0.5218618027097364"/>
<rect x="1677.6000000000001" y="2805.503392746759" fill="#fbafe4" width="59.3"             height="0.5101644247415038"/>
<rect x="1677.6000000000001" y="2806.0136647954496" fill="#fbafe4" width="59.3"             height="0.5808195473284172"/>
<rect x="1677.6000000000001" y="2806.5948072146252" fill="#fbafe4" width="59.3"             height="0.5881783348484078"/>
<rect x="1677.6000000000001" y="2807.1832546093465" fill="#fbafe4" width="59.3"             height="0.658725833486244"/>
<rect x="1677.6000000000001" y="2807.84202752831" fill="#fbafe4" width="59.3"             height="0.5377497881962086"/>
<rect x="1677.6000000000001" y="2808.3806046756154" fill="#fbafe4" width="59.3"             height="0.5797836668182867"/>
<rect x="1677.6000000000001" y="2808.9608255647267" fill="#fbafe4" width="59.3"             height="0.5372183949475584"/>
<rect x="1677.6000000000001" y="2809.4983197460438" fill="#fbafe4" width="59.3"             height="0.48680330128900096"/>
<rect x="1677.6000000000001" y="2809.9852441242756" fill="#fbafe4" width="59.3"             height="0.6106851932048585"/>
<rect x="1677.6000000000001" y="2810.5962992748055" fill="#fbafe4" width="59.3"             height="0.5255613759602511"/>
<rect x="1677.6000000000001" y="2811.1220960781543" fill="#fbafe4" width="59.3"             height="0.5320524453904909"/>
<rect x="1677.6000000000001" y="2811.654996062144" fill="#fbafe4" width="59.3"             height="0.6419835829037197"/>
<rect x="1677.6000000000001" y="2812.2974437733283" fill="#fbafe4" width="59.3"             height="0.603057345812033"/>
<rect x="1677.6000000000001" y="2812.900507845637" fill="#fbafe4" width="59.3"             height="0.6257929050603366"/>
<rect x="1677.6000000000001" y="2813.5269868533733" fill="#fbafe4" width="59.3"             height="0.5872433517905051"/>
<rect x="1677.6000000000001" y="2814.1148086838903" fill="#fbafe4" width="59.3"             height="0.5856760780317245"/>
<rect x="1677.6000000000001" y="2814.700666377336" fill="#fbafe4" width="59.3"             height="0.6015707900151028"/>
<rect x="1677.6000000000001" y="2815.3026743896444" fill="#fbafe4" width="59.3"             height="0.7096588673998099"/>
<rect x="1677.6000000000001" y="2816.0129184622674" fill="#fbafe4" width="59.3"             height="0.6432481643056462"/>
<rect x="1677.6000000000001" y="2816.6562607975284" fill="#fbafe4" width="59.3"             height="0.5667948014607873"/>
<rect x="1677.6000000000001" y="2817.223338111856" fill="#fbafe4" width="59.3"             height="0.5118595019398526"/>
<rect x="1677.6000000000001" y="2817.7352648787637" fill="#fbafe4" width="59.3"             height="0.4687292043362845"/>
<rect x="1677.6000000000001" y="2818.20414206603" fill="#fbafe4" width="59.3"             height="0.5552588594160852"/>
<rect x="1677.6000000000001" y="2818.759488369905" fill="#fbafe4" width="59.3"             height="0.5744697343312168"/>
<rect x="1677.6000000000001" y="2819.334005189714" fill="#fbafe4" width="59.3"             height="0.4400137894159002"/>
<rect x="1677.6000000000001" y="2819.7741602355627" fill="#fbafe4" width="59.3"             height="0.373932684665931"/>
<rect x="1677.6000000000001" y="2820.148819381885" fill="#fbafe4" width="59.3"             height="0.4968056020588847"/>
<rect x="1677.6000000000001" y="2820.6462169156644" fill="#fbafe4" width="59.3"             height="0.46009910891751815"/>
<rect x="1677.6000000000001" y="2821.106490913499" fill="#fbafe4" width="59.3"             height="0.48283466816582177"/>
<rect x="1677.6000000000001" y="2821.589621547525" fill="#fbafe4" width="59.3"             height="0.33249746426076854"/>
<rect x="1677.6000000000001" y="2821.9221257382824" fill="#fbafe4" width="59.3"             height="0.4569040229284269"/>
<rect x="1677.6000000000001" y="2822.379843667326" fill="#fbafe4" width="59.3"             height="0.4423007983343723"/>
<rect x="1677.6000000000001" y="2822.822541328973" fill="#fbafe4" width="59.3"             height="0.4190674783214945"/>
<rect x="1677.6000000000001" y="2823.2418106021987" fill="#fbafe4" width="59.3"             height="0.4053319718170769"/>
<rect x="1677.6000000000001" y="2823.6471627535066" fill="#fbafe4" width="59.3"             height="0.41679392239666413"/>
<rect x="1677.6000000000001" y="2824.0640844793425" fill="#fbafe4" width="59.3"             height="0.49390648192991193"/>
<rect x="1677.6000000000001" y="2824.5586165254767" fill="#fbafe4" width="59.3"             height="0.4879333527546237"/>
<rect x="1677.6000000000001" y="2825.04693328855" fill="#fbafe4" width="59.3"             height="0.5752231019749274"/>
<rect x="1677.6000000000001" y="2825.6230981000795" fill="#fbafe4" width="59.3"             height="0.5606871423490816"/>
<rect x="1677.6000000000001" y="2826.1846731400087" fill="#fbafe4" width="59.3"             height="0.531843923989129"/>
<rect x="1677.6000000000001" y="2826.7168063033614" fill="#fbafe4" width="59.3"             height="0.5891805828744623"/>
<rect x="1677.6000000000001" y="2827.3060676041973" fill="#fbafe4" width="59.3"             height="0.6786900760451431"/>
<rect x="1677.6000000000001" y="2827.9851814495423" fill="#fbafe4" width="59.3"             height="0.5555480987792976"/>
<rect x="1677.6000000000001" y="2828.5407766337994" fill="#fbafe4" width="59.3"             height="0.9596491216785807"/>
<rect x="1677.6000000000001" y="2829.5005804649045" fill="#fbafe4" width="59.3"             height="0.602707567977518"/>
<rect x="1677.6000000000001" y="2830.103362024347" fill="#fbafe4" width="59.3"             height="0.6508894646920567"/>
<rect x="1677.6000000000001" y="2830.754258215536" fill="#fbafe4" width="59.3"             height="0.7013852763124646"/>
<rect x="1677.6000000000001" y="2831.4556502183455" fill="#fbafe4" width="59.3"             height="0.6833784443279569"/>
<rect x="1677.6000000000001" y="2832.140831363821" fill="#fbafe4" width="59.3"             height="0.5820975817239855"/>
<rect x="1677.6000000000001" y="2832.7229760310224" fill="#fbafe4" width="59.3"             height="0.6547168413821396"/>
<rect x="1677.6000000000001" y="2833.378755658902" fill="#fbafe4" width="59.3"             height="1.1154415145038001"/>
<rect x="1736.9" y="2603.1721778583997" fill="#fbafe4" width="59.3"             height="0.5639831257904007"/>
<rect x="1736.9" y="2603.7378291554014" fill="#fbafe4" width="59.3"             height="0.9397723235783673"/>
<rect x="1736.9" y="2604.678966957834" fill="#fbafe4" width="59.3"             height="0.9421602299491241"/>
<rect x="1736.9" y="2605.6218334699493" fill="#fbafe4" width="59.3"             height="0.8746127488925595"/>
<rect x="1736.9" y="2606.496452945338" fill="#fbafe4" width="59.3"             height="0.7308675118701871"/>
<rect x="1736.9" y="2607.2274011751706" fill="#fbafe4" width="59.3"             height="0.749264480670206"/>
<rect x="1736.9" y="2607.9775199209366" fill="#fbafe4" width="59.3"             height="0.6849658975772286"/>
<rect x="1736.9" y="2608.662627074947" fill="#fbafe4" width="59.3"             height="0.6963673096854421"/>
<rect x="1736.9" y="2609.359001111129" fill="#fbafe4" width="59.3"             height="0.5808397268188514"/>
<rect x="1736.9" y="2609.941932778459" fill="#fbafe4" width="59.3"             height="0.5603709969985999"/>
<rect x="1736.9" y="2610.503225305522" fill="#fbafe4" width="59.3"             height="0.7220356215468229"/>
<rect x="1736.9" y="2611.226135371655" fill="#fbafe4" width="59.3"             height="0.643423053222989"/>
<rect x="1736.9" y="2611.871455296981" fill="#fbafe4" width="59.3"             height="0.6902932830578976"/>
<rect x="1736.9" y="2612.5621992553256" fill="#fbafe4" width="59.3"             height="0.5644808865550175"/>
<rect x="1736.9" y="2613.1269761077406" fill="#fbafe4" width="59.3"             height="0.6623446887748798"/>
<rect x="1736.9" y="2613.7893611554964" fill="#fbafe4" width="59.3"             height="0.49970472218788586"/>
<rect x="1736.9" y="2614.290707142908" fill="#fbafe4" width="59.3"             height="0.6256381956335133"/>
<rect x="1736.9" y="2614.916567312937" fill="#fbafe4" width="59.3"             height="1.3739206077681274"/>
<rect x="1736.9" y="2616.2916785106418" fill="#fbafe4" width="59.3"             height="1.07048160976548"/>
<rect x="1736.9" y="2617.362570436713" fill="#fbafe4" width="59.3"             height="0.6360642657029842"/>
<rect x="1736.9" y="2617.9992199076396" fill="#fbafe4" width="59.3"             height="0.6377862488886592"/>
<rect x="1736.9" y="2618.637416472834" fill="#fbafe4" width="59.3"             height="0.7024211568225667"/>
<rect x="1736.9" y="2619.3413241854537" fill="#fbafe4" width="59.3"             height="0.9533463941591549"/>
<rect x="1736.9" y="2620.295450853244" fill="#fbafe4" width="59.3"             height="0.905695890693238"/>
<rect x="1736.9" y="2621.203003257059" fill="#fbafe4" width="59.3"             height="0.569142348850562"/>
<rect x="1736.9" y="2621.7721523324067" fill="#fbafe4" width="59.3"             height="0.6288601876098028"/>
<rect x="1736.9" y="2622.401395930335" fill="#fbafe4" width="59.3"             height="0.727558075435212"/>
<rect x="1736.9" y="2623.129888988828" fill="#fbafe4" width="59.3"             height="0.6589141753971717"/>
<rect x="1736.9" y="2623.7891327625694" fill="#fbafe4" width="59.3"             height="0.6975511731255892"/>
<rect x="1736.9" y="2624.4876323717467" fill="#fbafe4" width="59.3"             height="0.8324914258118952"/>
<rect x="1736.9" y="2625.3206148318263" fill="#fbafe4" width="59.3"             height="0.6612213638061064"/>
<rect x="1736.9" y="2625.9819438195814" fill="#fbafe4" width="59.3"             height="1.4648830242516624"/>
<rect x="1736.9" y="2627.447432228547" fill="#fbafe4" width="59.3"             height="2.112146907158319"/>
<rect x="1736.9" y="2629.5600096315015" fill="#fbafe4" width="59.3"             height="0.8370116316742724"/>
<rect x="1736.9" y="2630.397095254641" fill="#fbafe4" width="59.3"             height="0.5811222396852713"/>
<rect x="1736.9" y="2630.978338571269" fill="#fbafe4" width="59.3"             height="0.623922938944645"/>
<rect x="1736.9" y="2631.6030081513604" fill="#fbafe4" width="59.3"             height="0.8662920723274397"/>
<rect x="1736.9" y="2632.469663454516" fill="#fbafe4" width="59.3"             height="0.8434488891300589"/>
<rect x="1736.9" y="2633.31356974543" fill="#fbafe4" width="59.3"             height="0.6386539669782962"/>
<rect x="1736.9" y="2633.9524658662936" fill="#fbafe4" width="59.3"             height="1.996827845693133"/>
<rect x="1736.9" y="2635.9493475239615" fill="#fbafe4" width="59.3"             height="1.7334854952286491"/>
<rect x="1736.9" y="2637.683310600464" fill="#fbafe4" width="59.3"             height="0.6903403685356295"/>
<rect x="1736.9" y="2638.373926755369" fill="#fbafe4" width="59.3"             height="0.8683571068508797"/>
<rect x="1736.9" y="2639.243635888081" fill="#fbafe4" width="59.3"             height="0.8325250582959711"/>
<rect x="1736.9" y="2640.0776273226834" fill="#fbafe4" width="59.3"             height="0.6477347376839759"/>
<rect x="1736.9" y="2640.72681498368" fill="#fbafe4" width="59.3"             height="0.5151823913684268"/>
<rect x="1736.9" y="2641.2426363922464" fill="#fbafe4" width="59.3"             height="0.588420488733874"/>
<rect x="1736.9" y="2641.8334649668413" fill="#fbafe4" width="59.3"             height="0.7857355464228988"/>
<rect x="1736.9" y="2642.6193148637103" fill="#fbafe4" width="59.3"             height="0.5986918493765359"/>
<rect x="1736.9" y="2643.218087431049" fill="#fbafe4" width="59.3"             height="0.7645874404239237"/>
<rect x="1736.9" y="2643.982896845868" fill="#fbafe4" width="59.3"             height="0.5727477511455845"/>
<rect x="1736.9" y="2644.555664776504" fill="#fbafe4" width="59.3"             height="0.4673300929979689"/>
<rect x="1736.9" y="2645.02335810033" fill="#fbafe4" width="59.3"             height="0.5944339768900875"/>
<rect x="1736.9" y="2645.6196620433357" fill="#fbafe4" width="59.3"             height="0.636871445321276"/>
<rect x="1736.9" y="2646.256607480122" fill="#fbafe4" width="59.3"             height="0.7493384721352072"/>
<rect x="1736.9" y="2647.00665896092" fill="#fbafe4" width="59.3"             height="0.9114806779575986"/>
<rect x="1736.9" y="2647.9182203568394" fill="#fbafe4" width="59.3"             height="0.6420373948782867"/>
<rect x="1736.9" y="2648.5604931791063" fill="#fbafe4" width="59.3"             height="0.5306936930331005"/>
<rect x="1736.9" y="2649.091307949082" fill="#fbafe4" width="59.3"             height="0.5106554590092287"/>
<rect x="1736.9" y="2649.602716775735" fill="#fbafe4" width="59.3"             height="0.49775403811040064"/>
<rect x="1736.9" y="2650.1008407711706" fill="#fbafe4" width="59.3"             height="0.4829759245990033"/>
<rect x="1736.9" y="2650.5845364309293" fill="#fbafe4" width="59.3"             height="0.5607745868077245"/>
<rect x="1736.9" y="2651.1468513855084" fill="#fbafe4" width="59.3"             height="0.5769921706383911"/>
<rect x="1736.9" y="2651.7242673254464" fill="#fbafe4" width="59.3"             height="0.6166986813610151"/>
<rect x="1736.9" y="2652.3411947076993" fill="#fbafe4" width="59.3"             height="0.5556355432379974"/>
<rect x="1736.9" y="2652.8975365331034" fill="#fbafe4" width="59.3"             height="1.0723448493843648"/>
<rect x="1736.9" y="2653.9701033568826" fill="#fbafe4" width="59.3"             height="1.1333474490360231"/>
<rect x="1736.9" y="2655.104923908722" fill="#fbafe4" width="59.3"             height="0.6786497170641894"/>
<rect x="1736.9" y="2655.7840713865507" fill="#fbafe4" width="59.3"             height="0.8140675510245785"/>
<rect x="1736.9" y="2656.598831766748" fill="#fbafe4" width="59.3"             height="0.8774715100406354"/>
<rect x="1736.9" y="2657.476357088763" fill="#fbafe4" width="59.3"             height="0.7341634953115204"/>
<rect x="1736.9" y="2658.21061475503" fill="#fbafe4" width="59.3"             height="0.6114452873453331"/>
<rect x="1736.9" y="2658.8221340338405" fill="#fbafe4" width="59.3"             height="0.6292906834062535"/>
<rect x="1736.9" y="2659.4517206831065" fill="#fbafe4" width="59.3"             height="0.5466085845068562"/>
<rect x="1736.9" y="2659.99833599411" fill="#fbafe4" width="59.3"             height="0.7285939559453993"/>
<rect x="1736.9" y="2660.7280936340053" fill="#fbafe4" width="59.3"             height="0.9935775716336934"/>
<rect x="1736.9" y="2661.7223169493336" fill="#fbafe4" width="59.3"             height="0.6036560040289203"/>
<rect x="1736.9" y="2662.3260873038084" fill="#fbafe4" width="59.3"             height="0.40823781844289897"/>
<rect x="1736.9" y="2662.7344394726974" fill="#fbafe4" width="59.3"             height="0.4771171458696415"/>
<rect x="1736.9" y="2663.2116575160194" fill="#fbafe4" width="59.3"             height="0.5031486885592358"/>
<rect x="1736.9" y="2663.714947461012" fill="#fbafe4" width="59.3"             height="0.6182188696421065"/>
<rect x="1736.9" y="2664.3352246386803" fill="#fbafe4" width="59.3"             height="0.900630838588512"/>
<rect x="1736.9" y="2665.235963101218" fill="#fbafe4" width="59.3"             height="0.6864390003806022"/>
<rect x="1736.9" y="2665.9226711614715" fill="#fbafe4" width="59.3"             height="0.5618104673178834"/>
<rect x="1736.9" y="2666.4881408430588" fill="#fbafe4" width="59.3"             height="0.7081924910932855"/>
<rect x="1736.9" y="2667.1968109154263" fill="#fbafe4" width="59.3"             height="0.7184436722454279"/>
<rect x="1736.9" y="2667.9156985364616" fill="#fbafe4" width="59.3"             height="0.7946145222240375"/>
<rect x="1736.9" y="2668.7112884007247" fill="#fbafe4" width="59.3"             height="0.6879255561775608"/>
<rect x="1736.9" y="2669.399294674864" fill="#fbafe4" width="59.3"             height="0.6192009381776984"/>
<rect x="1736.9" y="2670.018596510494" fill="#fbafe4" width="59.3"             height="0.8240563988008489"/>
<rect x="1736.9" y="2670.8428547041995" fill="#fbafe4" width="59.3"             height="0.7496344379952404"/>
<rect x="1736.9" y="2671.594264937355" fill="#fbafe4" width="59.3"             height="0.6384588985705193"/>
<rect x="1736.9" y="2672.232730562422" fill="#fbafe4" width="59.3"             height="0.7890046238769344"/>
<rect x="1736.9" y="2673.0240827336893" fill="#fbafe4" width="59.3"             height="0.6436517541148135"/>
<rect x="1736.9" y="2673.6684609494605" fill="#fbafe4" width="59.3"             height="0.6333669404785383"/>
<rect x="1736.9" y="2674.302937761914" fill="#fbafe4" width="59.3"             height="0.5614539629864339"/>
<rect x="1736.9" y="2674.8646876907605" fill="#fbafe4" width="59.3"             height="0.6499208491501349"/>
<rect x="1736.9" y="2675.5153619075545" fill="#fbafe4" width="59.3"             height="0.6316584102865193"/>
<rect x="1736.9" y="2676.1477400530007" fill="#fbafe4" width="59.3"             height="0.5513171322801895"/>
<rect x="1736.9" y="2676.699635664007" fill="#fbafe4" width="59.3"             height="0.6472369769193449"/>
<rect x="1736.9" y="2677.3469129999075" fill="#fbafe4" width="59.3"             height="0.5840079068206308"/>
<rect x="1736.9" y="2677.9321316761557" fill="#fbafe4" width="59.3"             height="0.7153831161927826"/>
<rect x="1736.9" y="2678.648120177062" fill="#fbafe4" width="59.3"             height="0.7733991512568252"/>
<rect x="1736.9" y="2679.4227300977464" fill="#fbafe4" width="59.3"             height="1.255628434708882"/>
<rect x="1736.9" y="2680.680517737934" fill="#fbafe4" width="59.3"             height="1.1102284794690434"/>
<rect x="1736.9" y="2681.7908067558747" fill="#fbafe4" width="59.3"             height="1.2342852603021868"/>
<rect x="1736.9" y="2683.0250987426734" fill="#fbafe4" width="59.3"             height="1.2759222756118902"/>
<rect x="1736.9" y="2684.3069268824925" fill="#fbafe4" width="59.3"             height="1.25948271738622"/>
<rect x="1736.9" y="2685.566988078605" fill="#fbafe4" width="59.3"             height="0.8743907744975559"/>
<rect x="1736.9" y="2686.4414595710646" fill="#fbafe4" width="59.3"             height="0.9054201043236674"/>
<rect x="1736.9" y="2687.3471218292734" fill="#fbafe4" width="59.3"             height="0.8366416743492096"/>
<rect x="1736.9" y="2688.1858621706306" fill="#fbafe4" width="59.3"             height="0.682342563817798"/>
<rect x="1736.9" y="2688.8686755892254" fill="#fbafe4" width="59.3"             height="0.8556036688819972"/>
<rect x="1736.9" y="2689.7249586342864" fill="#fbafe4" width="59.3"             height="0.8408255553706283"/>
<rect x="1736.9" y="2690.566194505963" fill="#fbafe4" width="59.3"             height="0.8513592493892475"/>
<rect x="1736.9" y="2691.417742097263" fill="#fbafe4" width="59.3"             height="0.9954340847557432"/>
<rect x="1736.9" y="2692.4133712504267" fill="#fbafe4" width="59.3"             height="0.791964282477295"/>
<rect x="1736.9" y="2693.206512669847" fill="#fbafe4" width="59.3"             height="0.755143438890002"/>
<rect x="1736.9" y="2693.961703194215" fill="#fbafe4" width="59.3"             height="0.8648256960208869"/>
<rect x="1736.9" y="2694.827860736606" fill="#fbafe4" width="59.3"             height="0.9912569302311169"/>
<rect x="1736.9" y="2695.8211894278575" fill="#fbafe4" width="59.3"             height="1.0275800130537789"/>
<rect x="1736.9" y="2696.849226842695" fill="#fbafe4" width="59.3"             height="0.8709938936039237"/>
<rect x="1736.9" y="2697.721962898975" fill="#fbafe4" width="59.3"             height="0.7081857645964647"/>
<rect x="1736.9" y="2698.43068005682" fill="#fbafe4" width="59.3"             height="0.6702954080149652"/>
<rect x="1736.9" y="2699.101654841014" fill="#fbafe4" width="59.3"             height="0.8318053231363649"/>
<rect x="1736.9" y="2699.9345296771444" fill="#fbafe4" width="59.3"             height="1.0248423288484787"/>
<rect x="1736.9" y="2700.959593980388" fill="#fbafe4" width="59.3"             height="0.8855769387075725"/>
<rect x="1736.9" y="2701.8453189020256" fill="#fbafe4" width="59.3"             height="0.9779048340453755"/>
<rect x="1736.9" y="2702.8239031122494" fill="#fbafe4" width="59.3"             height="1.087674535634875"/>
<rect x="1736.9" y="2703.911765989795" fill="#fbafe4" width="59.3"             height="0.8756149969185856"/>
<rect x="1736.9" y="2704.787784576523" fill="#fbafe4" width="59.3"             height="0.7566838066616128"/>
<rect x="1736.9" y="2705.5457329645865" fill="#fbafe4" width="59.3"             height="0.8498256081144859"/>
<rect x="1736.9" y="2706.3959083505356" fill="#fbafe4" width="59.3"             height="0.9001734368048346"/>
<rect x="1736.9" y="2707.2960885138373" fill="#fbafe4" width="59.3"             height="0.823915142367639"/>
<rect x="1736.9" y="2708.120191998116" fill="#fbafe4" width="59.3"             height="0.7786390922788655"/>
<rect x="1736.9" y="2708.8989857998217" fill="#fbafe4" width="59.3"             height="0.6523625674954872"/>
<rect x="1736.9" y="2709.5517519571263" fill="#fbafe4" width="59.3"             height="0.501406525883084"/>
<rect x="1736.9" y="2710.0538244061945" fill="#fbafe4" width="59.3"             height="0.583516872552849"/>
<rect x="1736.9" y="2710.6388816465187" fill="#fbafe4" width="59.3"             height="0.6225036481158384"/>
<rect x="1736.9" y="2711.2616207220235" fill="#fbafe4" width="59.3"             height="0.6808291020335275"/>
<rect x="1736.9" y="2711.9427928753944" fill="#fbafe4" width="59.3"             height="0.91616231974362"/>
<rect x="1736.9" y="2712.8593453319536" fill="#fbafe4" width="59.3"             height="0.8106504906405405"/>
<rect x="1736.9" y="2713.6713545749517" fill="#fbafe4" width="59.3"             height="0.810986815481499"/>
<rect x="1736.9" y="2714.48234811693" fill="#fbafe4" width="59.3"             height="0.821560868481015"/>
<rect x="1736.9" y="2715.30416459229" fill="#fbafe4" width="59.3"             height="0.7111050642159285"/>
<rect x="1736.9" y="2716.015908673704" fill="#fbafe4" width="59.3"             height="0.6983987117247921"/>
<rect x="1736.9" y="2716.714690795747" fill="#fbafe4" width="59.3"             height="0.6380553087613805"/>
<rect x="1736.9" y="2717.353593643108" fill="#fbafe4" width="59.3"             height="0.6727303998634397"/>
<rect x="1736.9" y="2718.0279451287047" fill="#fbafe4" width="59.3"             height="0.6862506584696462"/>
<rect x="1736.9" y="2718.715130770232" fill="#fbafe4" width="59.3"             height="0.6675980827905619"/>
<rect x="1736.9" y="2719.383092083851" fill="#fbafe4" width="59.3"             height="0.6194901775409107"/>
<rect x="1736.9" y="2720.0027436973155" fill="#fbafe4" width="59.3"             height="0.6977126090492334"/>
<rect x="1736.9" y="2720.7010347850915" fill="#fbafe4" width="59.3"             height="0.7833274605616793"/>
<rect x="1736.9" y="2721.4844295106213" fill="#fbafe4" width="59.3"             height="0.7234616388724646"/>
<rect x="1736.9" y="2722.209249901851" fill="#fbafe4" width="59.3"             height="0.7975203688498311"/>
<rect x="1736.9" y="2723.0094205104474" fill="#fbafe4" width="59.3"             height="0.7073651319845169"/>
<rect x="1736.9" y="2723.7169201723686" fill="#fbafe4" width="59.3"             height="0.5426332248868562"/>
<rect x="1736.9" y="2724.260152055472" fill="#fbafe4" width="59.3"             height="0.5248416408005596"/>
<rect x="1736.9" y="2724.785646166464" fill="#fbafe4" width="59.3"             height="0.5958263617316106"/>
<rect x="1736.9" y="2725.3816003316356" fill="#fbafe4" width="59.3"             height="0.6748156138773425"/>
<rect x="1736.9" y="2726.056489936978" fill="#fbafe4" width="59.3"             height="0.6094138853060258"/>
<rect x="1736.9" y="2726.6662536001186" fill="#fbafe4" width="59.3"             height="0.7307262554370197"/>
<rect x="1736.9" y="2727.3976457787403" fill="#fbafe4" width="59.3"             height="0.6594052096649818"/>
<rect x="1736.9" y="2728.0576765526093" fill="#fbafe4" width="59.3"             height="0.7364774102172476"/>
<rect x="1736.9" y="2728.795680877605" fill="#fbafe4" width="59.3"             height="0.6481652334803698"/>
<rect x="1736.9" y="2729.444290059875" fill="#fbafe4" width="59.3"             height="0.8523614974152451"/>
<rect x="1736.9" y="2730.2973107539788" fill="#fbafe4" width="59.3"             height="0.7137014919880471"/>
<rect x="1736.9" y="2731.0111333229097" fill="#fbafe4" width="59.3"             height="0.706288892493518"/>
<rect x="1736.9" y="2731.7179939676325" fill="#fbafe4" width="59.3"             height="0.7005646437005169"/>
<rect x="1736.9" y="2732.418672961779" fill="#fbafe4" width="59.3"             height="0.9094560024150553"/>
<rect x="1736.9" y="2733.3296020669977" fill="#fbafe4" width="59.3"             height="1.3806471045871547"/>
<rect x="1736.9" y="2734.7116281034328" fill="#fbafe4" width="59.3"             height="0.7626771153273069"/>
<rect x="1736.9" y="2735.4760002959583" fill="#fbafe4" width="59.3"             height="0.4886127289333331"/>
<rect x="1736.9" y="2735.9653663925355" fill="#fbafe4" width="59.3"             height="0.6442638653253425"/>
<rect x="1736.9" y="2736.6096706168414" fill="#fbafe4" width="59.3"             height="0.7495335405429557"/>
<rect x="1736.9" y="2737.359661559168" fill="#fbafe4" width="59.3"             height="0.6052569102718621"/>
<rect x="1736.9" y="2737.96549022167" fill="#fbafe4" width="59.3"             height="0.6638312445718952"/>
<rect x="1736.9" y="2738.6298461329934" fill="#fbafe4" width="59.3"             height="0.8186146628742677"/>
<rect x="1736.9" y="2739.448642411282" fill="#fbafe4" width="59.3"             height="0.7547533020744766"/>
<rect x="1736.9" y="2740.2034360723374" fill="#fbafe4" width="59.3"             height="0.6589209018939925"/>
<rect x="1736.9" y="2740.862780743531" fill="#fbafe4" width="59.3"             height="0.653472439470562"/>
<rect x="1736.9" y="2741.5162599094983" fill="#fbafe4" width="59.3"             height="0.712699243962021"/>
<rect x="1736.9" y="2742.230687863143" fill="#fbafe4" width="59.3"             height="0.6204587930828325"/>
<rect x="1736.9" y="2742.851839485398" fill="#fbafe4" width="59.3"             height="0.6416136255786853"/>
<rect x="1736.9" y="2743.493486743461" fill="#fbafe4" width="59.3"             height="0.6277570421314635"/>
<rect x="1736.9" y="2744.121337956548" fill="#fbafe4" width="59.3"             height="0.8020069422280756"/>
<rect x="1736.9" y="2744.92382248005" fill="#fbafe4" width="59.3"             height="0.6477952761553638"/>
<rect x="1736.9" y="2745.573191756461" fill="#fbafe4" width="59.3"             height="0.7326702130177125"/>
<rect x="1736.9" y="2746.3059023284595" fill="#fbafe4" width="59.3"             height="0.8759445952626947"/>
<rect x="1736.9" y="2747.182230334041" fill="#fbafe4" width="59.3"             height="1.0614950100152782"/>
<rect x="1736.9" y="2748.2455347717005" fill="#fbafe4" width="59.3"             height="0.7499640363393496"/>
<rect x="1736.9" y="2748.9958485858747" fill="#fbafe4" width="59.3"             height="0.6850129830549463"/>
<rect x="1736.9" y="2749.6814736801402" fill="#fbafe4" width="59.3"             height="0.7602152174915773"/>
<rect x="1736.9" y="2750.4418705130456" fill="#fbafe4" width="59.3"             height="0.822926347335283"/>
<rect x="1736.9" y="2751.26843589516" fill="#fbafe4" width="59.3"             height="1.1228742934887919"/>
<rect x="1736.9" y="2752.392938000879" fill="#fbafe4" width="59.3"             height="0.9254314323602557"/>
<rect x="1736.9" y="2753.3187595700547" fill="#fbafe4" width="59.3"             height="0.8031033612095939"/>
<rect x="1736.9" y="2754.121923469736" fill="#fbafe4" width="59.3"             height="0.6803111617784907"/>
<rect x="1736.9" y="2754.8023691614508" fill="#fbafe4" width="59.3"             height="0.611667261740422"/>
<rect x="1736.9" y="2755.4147225258666" fill="#fbafe4" width="59.3"             height="0.6656272192225288"/>
<rect x="1736.9" y="2756.0804439160447" fill="#fbafe4" width="59.3"             height="0.6170888181765122"/>
<rect x="1736.9" y="2756.697539460718" fill="#fbafe4" width="59.3"             height="0.5640033052808917"/>
<rect x="1736.9" y="2757.261825278865" fill="#fbafe4" width="59.3"             height="0.8107379350992119"/>
<rect x="1736.9" y="2758.0732627696334" fill="#fbafe4" width="59.3"             height="0.8395004354972571"/>
<rect x="1736.9" y="2758.9152587354506" fill="#fbafe4" width="59.3"             height="0.7711995867969677"/>
<rect x="1736.9" y="2759.687931425051" fill="#fbafe4" width="59.3"             height="1.1147554118282414"/>
<rect x="1736.9" y="2760.803850520829" fill="#fbafe4" width="59.3"             height="1.0775780639095274"/>
<rect x="1736.9" y="2761.8815025762037" fill="#fbafe4" width="59.3"             height="1.0383491344609865"/>
<rect x="1736.9" y="2762.9208741381813" fill="#fbafe4" width="59.3"             height="1.290175722371373"/>
<rect x="1736.9" y="2764.211117125521" fill="#fbafe4" width="59.3"             height="1.1150984631660208"/>
<rect x="1736.9" y="2765.332034008435" fill="#fbafe4" width="59.3"             height="0.9999744701085547"/>
<rect x="1736.9" y="2766.335560068864" fill="#fbafe4" width="59.3"             height="0.9191892433121893"/>
<rect x="1736.9" y="2767.2550789105208" fill="#fbafe4" width="59.3"             height="1.1301658160406305"/>
<rect x="1736.9" y="2768.385809752294" fill="#fbafe4" width="59.3"             height="1.0193400544504811"/>
<rect x="1736.9" y="2769.405674473496" fill="#fbafe4" width="59.3"             height="0.9220143719761609"/>
<rect x="1736.9" y="2770.3288121704413" fill="#fbafe4" width="59.3"             height="0.9226332096835108"/>
<rect x="1736.9" y="2771.252884850444" fill="#fbafe4" width="59.3"             height="1.0632371726914585"/>
<rect x="1736.9" y="2772.3171646301425" fill="#fbafe4" width="59.3"             height="0.9088304382108845"/>
<rect x="1736.9" y="2773.2274009061884" fill="#fbafe4" width="59.3"             height="1.0426204599411335"/>
<rect x="1736.9" y="2774.2710976056205" fill="#fbafe4" width="59.3"             height="0.9415952042163553"/>
<rect x="1736.9" y="2775.2131300321303" fill="#fbafe4" width="59.3"             height="0.8247223219858597"/>
<rect x="1736.9" y="2776.0399577476205" fill="#fbafe4" width="59.3"             height="0.9718644399019354"/>
<rect x="1736.9" y="2777.0120105294336" fill="#fbafe4" width="59.3"             height="0.7186723731373377"/>
<rect x="1736.9" y="2777.7312681077938" fill="#fbafe4" width="59.3"             height="0.7029660030649438"/>
<rect x="1736.9" y="2778.434644427165" fill="#fbafe4" width="59.3"             height="0.5584943043860449"/>
<rect x="1736.9" y="2778.9939324581755" fill="#fbafe4" width="59.3"             height="0.6335014704149557"/>
<rect x="1736.9" y="2779.6276895354695" fill="#fbafe4" width="59.3"             height="0.5931088570167162"/>
<rect x="1736.9" y="2780.2220226149075" fill="#fbafe4" width="59.3"             height="0.7326029480495322"/>
<rect x="1736.9" y="2780.9550829647405" fill="#fbafe4" width="59.3"             height="0.8668503715634301"/>
<rect x="1736.9" y="2781.826352644714" fill="#fbafe4" width="59.3"             height="0.6487975241814183"/>
<rect x="1736.9" y="2782.4763407588325" fill="#fbafe4" width="59.3"             height="0.5792522735695798"/>
<rect x="1736.9" y="2783.057153579664" fill="#fbafe4" width="59.3"             height="0.5909294720473781"/>
<rect x="1736.9" y="2783.6483991970617" fill="#fbafe4" width="59.3"             height="0.6584836796008062"/>
<rect x="1736.9" y="2784.3074882613764" fill="#fbafe4" width="59.3"             height="0.6763963406297648"/>
<rect x="1736.9" y="2784.9842007473567" fill="#fbafe4" width="59.3"             height="0.7516994725186805"/>
<rect x="1736.9" y="2785.7361894592386" fill="#fbafe4" width="59.3"             height="0.8221931591819498"/>
<rect x="1736.9" y="2786.559371413453" fill="#fbafe4" width="59.3"             height="0.8416461879825761"/>
<rect x="1736.9" y="2787.4043270378706" fill="#fbafe4" width="59.3"             height="0.6814008542631882"/>
<rect x="1736.9" y="2788.0861314819426" fill="#fbafe4" width="59.3"             height="0.7378765215555632"/>
<rect x="1736.9" y="2788.824431772798" fill="#fbafe4" width="59.3"             height="0.6050820213545762"/>
<rect x="1736.9" y="2789.4297694010315" fill="#fbafe4" width="59.3"             height="0.6511517980679855"/>
<rect x="1736.9" y="2790.0813315154055" fill="#fbafe4" width="59.3"             height="0.533471736219326"/>
<rect x="1736.9" y="2790.6156440637274" fill="#fbafe4" width="59.3"             height="0.5665593740720851"/>
<rect x="1736.9" y="2791.182364873723" fill="#fbafe4" width="59.3"             height="0.6653447063561657"/>
<rect x="1736.9" y="2791.8477163065763" fill="#fbafe4" width="59.3"             height="0.6106448342239332"/>
<rect x="1736.9" y="2792.4584284057682" fill="#fbafe4" width="59.3"             height="0.5897859675881705"/>
<rect x="1736.9" y="2793.0483489032927" fill="#fbafe4" width="59.3"             height="0.5240210081886403"/>
<rect x="1736.9" y="2793.5724775354306" fill="#fbafe4" width="59.3"             height="0.4977742176008064"/>
<rect x="1736.9" y="2794.070621710356" fill="#fbafe4" width="59.3"             height="0.39202023461223234"/>
<rect x="1736.9" y="2794.4629513638224" fill="#fbafe4" width="59.3"             height="0.658389508645314"/>
<rect x="1736.9" y="2795.1240987361634" fill="#fbafe4" width="59.3"             height="0.5222922985061587"/>
<rect x="1736.9" y="2795.646814803969" fill="#fbafe4" width="59.3"             height="0.653324456540588"/>
<rect x="1736.9" y="2796.3001594400002" fill="#fbafe4" width="59.3"             height="0.5992770545997246"/>
<rect x="1736.9" y="2796.899698827976" fill="#fbafe4" width="59.3"             height="0.6529948581964504"/>
<rect x="1736.9" y="2797.5538439171282" fill="#fbafe4" width="59.3"             height="0.8678929785703531"/>
<rect x="1736.9" y="2798.4221270325143" fill="#fbafe4" width="59.3"             height="0.6738268188449297"/>
<rect x="1736.9" y="2799.096169099257" fill="#fbafe4" width="59.3"             height="0.7591053455164456"/>
<rect x="1736.9" y="2799.856861898023" fill="#fbafe4" width="59.3"             height="0.8897809992194539"/>
<rect x="1736.9" y="2800.747033034058" fill="#fbafe4" width="59.3"             height="0.6344768124537268"/>
<rect x="1736.9" y="2801.381866350843" fill="#fbafe4" width="59.3"             height="0.5232541875512879"/>
<rect x="1736.9" y="2801.907326829351" fill="#fbafe4" width="59.3"             height="0.7317957684312546"/>
<rect x="1736.9" y="2802.6391898627503" fill="#fbafe4" width="59.3"             height="0.670752809798671"/>
<rect x="1736.9" y="2803.3101444674535" fill="#fbafe4" width="59.3"             height="0.6933874715946331"/>
<rect x="1736.9" y="2804.0035655715324" fill="#fbafe4" width="59.3"             height="0.49839305530815636"/>
<rect x="1736.9" y="2804.5019653533373" fill="#fbafe4" width="59.3"             height="0.47908800943758933"/>
<rect x="1736.9" y="2804.9812080722018" fill="#fbafe4" width="59.3"             height="0.5218618027097364"/>
<rect x="1736.9" y="2805.503392746759" fill="#fbafe4" width="59.3"             height="0.5101644247415038"/>
<rect x="1736.9" y="2806.0136647954496" fill="#fbafe4" width="59.3"             height="0.5808195473284172"/>
<rect x="1736.9" y="2806.5948072146252" fill="#fbafe4" width="59.3"             height="0.5881783348484078"/>
<rect x="1736.9" y="2807.1832546093465" fill="#fbafe4" width="59.3"             height="0.658725833486244"/>
<rect x="1736.9" y="2807.84202752831" fill="#fbafe4" width="59.3"             height="0.5377497881962086"/>
<rect x="1736.9" y="2808.3806046756154" fill="#fbafe4" width="59.3"             height="0.5797836668182867"/>
<rect x="1736.9" y="2808.9608255647267" fill="#fbafe4" width="59.3"             height="0.5372183949475584"/>
<rect x="1736.9" y="2809.4983197460438" fill="#fbafe4" width="59.3"             height="0.48680330128900096"/>
<rect x="1736.9" y="2809.9852441242756" fill="#fbafe4" width="59.3"             height="0.6106851932048585"/>
<rect x="1736.9" y="2810.5962992748055" fill="#fbafe4" width="59.3"             height="0.5255613759602511"/>
<rect x="1736.9" y="2811.1220960781543" fill="#fbafe4" width="59.3"             height="0.5320524453904909"/>
<rect x="1736.9" y="2811.654996062144" fill="#fbafe4" width="59.3"             height="0.6419835829037197"/>
<rect x="1736.9" y="2812.2974437733283" fill="#fbafe4" width="59.3"             height="0.603057345812033"/>
<rect x="1736.9" y="2812.900507845637" fill="#fbafe4" width="59.3"             height="0.6257929050603366"/>
<rect x="1736.9" y="2813.5269868533733" fill="#fbafe4" width="59.3"             height="0.5872433517905051"/>
<rect x="1736.9" y="2814.1148086838903" fill="#fbafe4" width="59.3"             height="0.5856760780317245"/>
<rect x="1736.9" y="2814.700666377336" fill="#fbafe4" width="59.3"             height="0.6015707900151028"/>
<rect x="1736.9" y="2815.3026743896444" fill="#fbafe4" width="59.3"             height="0.7096588673998099"/>
<rect x="1736.9" y="2816.0129184622674" fill="#fbafe4" width="59.3"             height="0.6432481643056462"/>
<rect x="1736.9" y="2816.6562607975284" fill="#fbafe4" width="59.3"             height="0.5667948014607873"/>
<rect x="1736.9" y="2817.223338111856" fill="#fbafe4" width="59.3"             height="0.5118595019398526"/>
<rect x="1736.9" y="2817.7352648787637" fill="#fbafe4" width="59.3"             height="0.4687292043362845"/>
<rect x="1736.9" y="2818.20414206603" fill="#fbafe4" width="59.3"             height="0.5552588594160852"/>
<rect x="1736.9" y="2818.759488369905" fill="#fbafe4" width="59.3"             height="0.5744697343312168"/>
<rect x="1736.9" y="2819.334005189714" fill="#fbafe4" width="59.3"             height="0.4400137894159002"/>
<rect x="1736.9" y="2819.7741602355627" fill="#fbafe4" width="59.3"             height="0.373932684665931"/>
<rect x="1736.9" y="2820.148819381885" fill="#fbafe4" width="59.3"             height="0.4968056020588847"/>
<rect x="1736.9" y="2820.6462169156644" fill="#fbafe4" width="59.3"             height="0.46009910891751815"/>
<rect x="1736.9" y="2821.106490913499" fill="#fbafe4" width="59.3"             height="0.48283466816582177"/>
<rect x="1736.9" y="2821.589621547525" fill="#fbafe4" width="59.3"             height="0.33249746426076854"/>
<rect x="1736.9" y="2821.9221257382824" fill="#fbafe4" width="59.3"             height="0.4569040229284269"/>
<rect x="1736.9" y="2822.379843667326" fill="#fbafe4" width="59.3"             height="0.4423007983343723"/>
<rect x="1736.9" y="2822.822541328973" fill="#fbafe4" width="59.3"             height="0.4190674783214945"/>
<rect x="1736.9" y="2823.2418106021987" fill="#fbafe4" width="59.3"             height="0.4053319718170769"/>
<rect x="1736.9" y="2823.6471627535066" fill="#fbafe4" width="59.3"             height="0.41679392239666413"/>
<rect x="1736.9" y="2824.0640844793425" fill="#fbafe4" width="59.3"             height="0.49390648192991193"/>
<rect x="1736.9" y="2824.5586165254767" fill="#fbafe4" width="59.3"             height="0.4879333527546237"/>
<rect x="1736.9" y="2825.04693328855" fill="#fbafe4" width="59.3"             height="0.5752231019749274"/>
<rect x="1736.9" y="2825.6230981000795" fill="#fbafe4" width="59.3"             height="0.5606871423490816"/>
<rect x="1736.9" y="2826.1846731400087" fill="#fbafe4" width="59.3"             height="0.531843923989129"/>
<rect x="1736.9" y="2826.7168063033614" fill="#fbafe4" width="59.3"             height="0.5891805828744623"/>
<rect x="1736.9" y="2827.3060676041973" fill="#fbafe4" width="59.3"             height="0.6786900760451431"/>
<rect x="1736.9" y="2827.9851814495423" fill="#fbafe4" width="59.3"             height="0.5555480987792976"/>
<rect x="1736.9" y="2828.5407766337994" fill="#fbafe4" width="59.3"             height="0.9596491216785807"/>
<rect x="1736.9" y="2829.5005804649045" fill="#fbafe4" width="59.3"             height="0.602707567977518"/>
<rect x="1736.9" y="2830.103362024347" fill="#fbafe4" width="59.3"             height="0.6508894646920567"/>
<rect x="1736.9" y="2830.754258215536" fill="#fbafe4" width="59.3"             height="0.7013852763124646"/>
<rect x="1736.9" y="2831.4556502183455" fill="#fbafe4" width="59.3"             height="0.6833784443279569"/>
<rect x="1736.9" y="2832.140831363821" fill="#fbafe4" width="59.3"             height="0.5820975817239855"/>
<rect x="1736.9" y="2832.7229760310224" fill="#fbafe4" width="59.3"             height="0.6547168413821396"/>
<rect x="1736.9" y="2833.378755658902" fill="#fbafe4" width="59.3"             height="1.1154415145038001"/>
	</g>
	<use xlink:href="#SVGID_1_"  style="overflow:visible;fill:none;stroke:#231F20;stroke-miterlimit:10;"/>
</g>
</svg>